<?xml version="1.0" encoding="UTF-8" standalone="no"?>
<!-- Created with Inkscape (http://www.inkscape.org/) -->

<svg
   xmlns:dc="http://purl.org/dc/elements/1.1/"
   xmlns:cc="http://creativecommons.org/ns#"
   xmlns:rdf="http://www.w3.org/1999/02/22-rdf-syntax-ns#"
   xmlns:svg="http://www.w3.org/2000/svg"
   xmlns="http://www.w3.org/2000/svg"
   xmlns:sodipodi="http://sodipodi.sourceforge.net/DTD/sodipodi-0.dtd"
   xmlns:inkscape="http://www.inkscape.org/namespaces/inkscape"
   width="297mm"
   height="210mm"
   viewBox="0 0 297 210"
   version="1.1"
   id="svg8"
   inkscape:version="0.92.4 (5da689c313, 2019-01-14)"
   sodipodi:docname="cheese.svg">
  <defs
     id="defs2">
    <inkscape:path-effect
       effect="spiro"
       id="path-effect910"
       is_visible="true" />
    <inkscape:path-effect
       effect="simplify"
       id="path-effect908"
       is_visible="true"
       steps="1"
       threshold="0.00128407"
       smooth_angles="360"
       helper_size="0"
       simplify_individual_paths="false"
       simplify_just_coalesce="false"
       simplifyindividualpaths="false"
       simplifyJustCoalesce="false" />
    <inkscape:path-effect
       effect="spiro"
       id="path-effect904"
       is_visible="true" />
    <inkscape:path-effect
       effect="simplify"
       id="path-effect902"
       is_visible="true"
       steps="1"
       threshold="0.00128407"
       smooth_angles="360"
       helper_size="0"
       simplify_individual_paths="false"
       simplify_just_coalesce="false"
       simplifyindividualpaths="false"
       simplifyJustCoalesce="false" />
    <inkscape:path-effect
       effect="spiro"
       id="path-effect877"
       is_visible="true" />
    <inkscape:path-effect
       effect="simplify"
       id="path-effect875"
       is_visible="true"
       steps="1"
       threshold="0.00128407"
       smooth_angles="360"
       helper_size="0"
       simplify_individual_paths="false"
       simplify_just_coalesce="false"
       simplifyindividualpaths="false"
       simplifyJustCoalesce="false" />
    <inkscape:path-effect
       effect="spiro"
       id="path-effect859"
       is_visible="true" />
    <inkscape:path-effect
       effect="simplify"
       id="path-effect857"
       is_visible="true"
       steps="1"
       threshold="0.00128407"
       smooth_angles="360"
       helper_size="0"
       simplify_individual_paths="false"
       simplify_just_coalesce="false"
       simplifyindividualpaths="false"
       simplifyJustCoalesce="false" />
    <inkscape:path-effect
       effect="spiro"
       id="path-effect845"
       is_visible="true" />
    <inkscape:path-effect
       effect="spiro"
       id="path-effect841"
       is_visible="true" />
    <inkscape:path-effect
       effect="spiro"
       id="path-effect837"
       is_visible="true" />
    <inkscape:path-effect
       effect="spiro"
       id="path-effect833"
       is_visible="true" />
    <inkscape:path-effect
       effect="spiro"
       id="path-effect829"
       is_visible="true" />
    <inkscape:path-effect
       effect="spiro"
       id="path-effect825"
       is_visible="true" />
    <inkscape:path-effect
       effect="spiro"
       id="path-effect821"
       is_visible="true" />
    <inkscape:path-effect
       effect="spiro"
       id="path-effect817"
       is_visible="true" />
  </defs>
  <sodipodi:namedview
     id="base"
     pagecolor="#ffffff"
     bordercolor="#666666"
     borderopacity="1.0"
     inkscape:pageopacity="0.0"
     inkscape:pageshadow="2"
     inkscape:zoom="0.49497475"
     inkscape:cx="251.79158"
     inkscape:cy="722.83861"
     inkscape:document-units="mm"
     inkscape:current-layer="layer1"
     showgrid="false"
     inkscape:window-width="1280"
     inkscape:window-height="1001"
     inkscape:window-x="-8"
     inkscape:window-y="-8"
     inkscape:window-maximized="1" />
  <metadata
     id="metadata5">
    <rdf:RDF>
      <cc:Work
         rdf:about="">
        <dc:format>image/svg+xml</dc:format>
        <dc:type
           rdf:resource="http://purl.org/dc/dcmitype/StillImage" />
        <dc:title></dc:title>
      </cc:Work>
    </rdf:RDF>
  </metadata>
  <g
     inkscape:label="Layer 1"
     inkscape:groupmode="layer"
     id="layer1"
     transform="translate(0,-87)">
    <path
       style="fill:#ffe680;fill-rule:evenodd;stroke:#000000;stroke-width:2;stroke-linecap:butt;stroke-linejoin:miter;stroke-opacity:1;stroke-miterlimit:4;stroke-dasharray:none"
       inkscape:path-effect="#path-effect817"
       inkscape:original-d="m 45.357142,135.60417 c 0.358249,4.17045 1.05291,8.27925 0.747912,12.55176 -0.419489,3.03714 1.041505,5.90436 0.31778,8.95701 0.185047,3.24274 0.449161,6.44644 0.820931,9.67477 0.868181,3.22332 0.221507,6.63012 0.381234,9.95571 -3.76e-4,4.92949 5.08e-4,9.89242 0,14.80123 -0.442485,-0.32637 0.201504,2.16132 1.802991,1.16547 3.259499,0.079 6.656429,-0.10145 9.725283,-0.59853 2.976288,-0.8401 6.307802,-0.28384 9.446939,-0.95589 2.867362,-0.22496 5.767124,-1.2555 8.768747,-0.73329 3.287277,0.20059 6.43692,-0.80812 9.75784,-0.28022 2.873598,-1.20404 6.077658,-0.26212 9.126349,-0.48742 5.313562,0.0289 10.629132,-0.0237 15.938812,-0.0773 2.68607,0.40162 6.59984,1.40371 8.51145,0.70361 -1.13558,-2.5256 -2.78509,-4.01018 -3.15282,-6.67395 -1.69676,-3.50217 -2.72512,-7.42759 -2.18937,-11.40299 -0.26097,-3.79563 -0.37344,-7.54351 -0.86064,-11.26653 -0.46845,-2.79733 -0.47254,-5.71199 -0.35177,-8.63712 -0.006,-4.5575 0.009,-9.11547 0,-13.67253 -2.91943,0.22674 -4.52265,-1.0582 -7.19894,-1.10186 -3.14401,-0.7767 -5.90937,-1.26611 -9.054038,-1.54397 -3.832906,-1.16364 -7.815786,-1.72228 -11.717261,-2.64584 -3.335988,-0.67083 -6.666221,-1.75294 -10.112759,-1.86356 -3.048986,-0.78669 -6.348712,-0.85108 -9.31454,-1.45393 -0.503438,-0.0828 -4.292149,-0.6422 -5.51913,-1.02922 -2.481649,-0.39119 -4.890275,-1.04117 -7.181549,-1.70091 -2.22482,-0.18696 -3.902075,-0.89825 -6.177547,-1.40559 -0.74533,-1.1142 -1.665514,1.77856 -2.57357,2.75832 -1.240321,2.84694 1.710259,6.40731 0.128537,8.26205 0.10708,0.61068 0.62702,1.35102 0.141742,1.27569"
       id="path815"
       d="m 45.357142,135.60417 0.747912,12.55176 0.31778,8.95701 0.820931,9.67477 c 0.178167,3.31635 0.305265,6.63545 0.381234,9.95571 0.112866,4.93288 0.112866,9.86835 0,14.80123 l 1.802991,1.16547 9.725283,-0.59853 9.446939,-0.95589 8.768747,-0.73329 9.75784,-0.28022 9.126349,-0.48742 15.938812,-0.0773 8.51145,0.70361 -3.15282,-6.67395 -2.18937,-11.40299 c -0.3621,-3.74926 -0.64905,-7.50577 -0.86064,-11.26653 -0.16186,-2.87699 -0.27962,-5.75648 -0.35177,-8.63712 -0.11413,-4.55656 -0.11413,-9.11597 0,-13.67253 l -7.19894,-1.10186 -9.054038,-1.54397 c -3.886218,-0.96567 -7.793172,-1.84789 -11.717261,-2.64584 -3.359123,-0.68307 -6.730802,-1.3044 -10.112759,-1.86356 -3.11346,-0.42714 -6.219015,-0.91189 -9.31454,-1.45393 -1.843416,-0.32279 -3.683275,-0.66589 -5.51913,-1.02922 l -7.181549,-1.70091 -6.177547,-1.40559 -2.57357,2.75832 0.128537,8.26205 0.141742,1.27569"
       inkscape:connector-curvature="0"
       sodipodi:nodetypes="cccccccccccccccccccccccccccccc" />
    <path
       style="fill:none;fill-rule:evenodd;stroke:#000000;stroke-width:2;stroke-linecap:butt;stroke-linejoin:miter;stroke-opacity:1;stroke-miterlimit:4;stroke-dasharray:none"
       inkscape:path-effect="#path-effect821"
       inkscape:original-d="m 114.90476,139.76191 c -6.50693,-0.0167 -13.02095,0.0565 -19.520788,-0.0888 -2.88756,1.55827 -6.314379,-0.57645 -9.205401,0.84476 -4.908167,0.0372 -9.838651,-0.0538 -14.741072,0 -3.340478,0.53685 -6.639686,0.8389 -10.084891,0.63924 -3.43707,0.63693 -7.359851,0.23326 -10.325824,1.06166 -1.850966,0.57435 -3.910599,0.11578 -5.142163,1.3057 -0.773509,-1.02797 0.992187,-1.48829 -0.314866,-5.34533"
       id="path819"
       d="m 114.90476,139.76191 -19.520788,-0.0888 -9.205401,0.84476 H 71.437499 l -10.084891,0.63924 c -3.46544,0.0196 -6.928893,0.37572 -10.325824,1.06166 -1.734166,0.35018 -3.451011,0.78612 -5.142163,1.3057 l -0.314866,-5.34533"
       inkscape:connector-curvature="0"
       sodipodi:nodetypes="cccccccc" />
    <path
       style="fill:#e4a21e;fill-opacity:1;fill-rule:evenodd;stroke:none;stroke-width:2;stroke-linecap:butt;stroke-linejoin:miter;stroke-miterlimit:4;stroke-dasharray:none;stroke-opacity:1"
       inkscape:path-effect="#path-effect829"
       inkscape:original-d="m 88.129369,150.74221 c -1.556422,-1.46465 -1.310944,-0.86458 -3.114029,1.6526 -1.920476,2.61164 -0.56513,6.85625 2.297159,8.53376 2.219114,2.01401 5.773425,3.18522 8.666573,1.61041 2.61939,-1.61378 5.927258,-3.64312 5.730248,-7.0576 0.2607,-3.33531 -3.527401,-6.18732 -6.634873,-6.39329 -2.401989,-0.17528 -5.44307,0.53244 -6.945078,1.65412"
       id="path827"
       d="m 88.129369,150.74221 c -1.185919,0.17309 -2.305975,0.76749 -3.114029,1.6526 -0.590699,0.64703 -1.015248,1.4445 -1.222212,2.29581 -0.206964,0.85132 -0.195912,1.75469 0.03182,2.60069 0.227729,0.84599 0.67166,1.63284 1.278012,2.26522 0.606351,0.63238 1.37386,1.10898 2.209542,1.37204 1.166629,1.00445 2.602465,1.69322 4.116016,1.97447 1.513551,0.28124 3.100973,0.15425 4.550557,-0.36406 1.499979,-0.53632 2.847991,-1.49078 3.852083,-2.72746 1.004095,-1.23668 1.661345,-2.75199 1.878165,-4.33014 -0.37664,-1.5776 -1.21367,-3.0424 -2.38162,-4.16782 -1.167947,-1.12542 -2.662775,-1.90758 -4.253253,-2.22547 -2.407502,-0.48119 -5.012958,0.13935 -6.945078,1.65412"
       inkscape:connector-curvature="0"
       transform="translate(-28.597839,24.187892)"
       sodipodi:nodetypes="ccccccc" />
    <path
       style="fill:#e4a21e;fill-rule:evenodd;stroke:none;stroke-width:2;stroke-linecap:butt;stroke-linejoin:miter;stroke-opacity:1;stroke-miterlimit:4;stroke-dasharray:none;fill-opacity:1"
       inkscape:path-effect="#path-effect833"
       inkscape:original-d="m 60.098214,172.26786 c -3.568619,-1.29382 -4.947988,3.59025 -6.075796,6.08761 -2.515795,3.20058 1.711814,5.93036 4.621206,5.70733 3.224828,0.1768 6.455314,-0.48461 9.027313,-2.51842 1.912917,-1.77484 2.213245,-5.99853 0.691243,-7.66594 -1.603897,-1.52333 -4.803302,-1.82532 -7.322431,-1.64972 l -0.503349,0.0277 z"
       id="path831"
       d="m 60.098214,172.26786 -6.075796,6.08761 4.621206,5.70733 9.027313,-2.51842 0.691243,-7.66594 c -0.921618,-0.91805 -2.148465,-1.50953 -3.432221,-1.71967 -1.283756,-0.21013 -2.592593,-0.0216 -3.89021,0.07 -0.167627,0.0118 -0.335437,0.0211 -0.503349,0.0277 -0.146002,0.006 -0.292082,0.01 -0.438186,0.0114 z"
       inkscape:connector-curvature="0"
       transform="translate(14.102686,-16.853395)" />
    <path
       style="fill:#e4a21e;fill-rule:evenodd;stroke:none;stroke-width:2;stroke-linecap:butt;stroke-linejoin:miter;stroke-opacity:1;stroke-miterlimit:4;stroke-dasharray:none;fill-opacity:1"
       d="m 66.683746,134.3665 c 0.02558,-0.10807 0.01154,-0.22506 -0.03889,-0.324 -0.05043,-0.0989 -0.13684,-0.17905 -0.239314,-0.22185 -0.101344,-0.0423 -0.213574,-0.0481 -0.323153,-0.0555 -0.108495,-0.007 -0.219096,-0.0173 -0.318828,-0.0607 -0.05509,-0.0239 -0.105379,-0.0575 -0.157083,-0.088 -0.0517,-0.0306 -0.106031,-0.0587 -0.164983,-0.0702 -0.06274,-0.0123 -0.127469,-0.005 -0.190933,0.002 -0.06346,0.008 -0.127909,0.0159 -0.191024,0.006 -0.06307,-0.0102 -0.121697,-0.0381 -0.178848,-0.0667 -0.05715,-0.0285 -0.114617,-0.0583 -0.176932,-0.0723 -0.07263,-0.0164 -0.148243,-0.0107 -0.222332,-0.003 -0.07409,0.007 -0.148938,0.0163 -0.222716,0.006 -0.127865,-0.0174 -0.240363,-0.0896 -0.356659,-0.14546 -0.224264,-0.10782 -0.474959,-0.15806 -0.723735,-0.15261 -0.248775,0.005 -0.495428,0.066 -0.721766,0.16936 -0.205723,0.094 -0.397448,0.22373 -0.61649,0.28007 -0.105847,0.0272 -0.216572,0.0368 -0.318511,0.0762 -0.129707,0.0501 -0.236115,0.14483 -0.349179,0.22579 -0.326101,0.23351 -0.715873,0.35716 -1.097152,0.48164 -0.381278,0.12449 -0.769431,0.2577 -1.084592,0.50578 -0.144722,0.11392 -0.270719,0.24964 -0.409703,0.37049 -0.307567,0.26744 -0.674211,0.45839 -0.992238,0.7133 -0.568995,0.45608 -0.956647,1.09376 -1.413979,1.66175 -0.120704,0.14991 -0.247094,0.29593 -0.35234,0.45707 -0.105246,0.16114 -0.189546,0.33976 -0.215912,0.53041 -0.01768,0.12786 -0.009,0.25767 -0.0042,0.38667 0.0048,0.12899 0.0053,0.26003 -0.02809,0.38472 -0.03155,0.11791 -0.0922,0.22568 -0.13632,0.33948 -0.109662,0.28282 -0.11454,0.59559 -0.08623,0.89761 0.02831,0.30202 0.08825,0.60094 0.103215,0.90391 0.01864,0.37737 -0.03276,0.75658 0.0013,1.13287 0.04153,0.45914 0.208617,0.89716 0.394336,1.31911 0.09392,0.21338 0.193545,0.42538 0.322426,0.61965 0.08329,0.12555 0.17852,0.24317 0.283825,0.35093 0.07868,0.0805 0.163044,0.15558 0.253563,0.2225 0.133569,0.0987 0.27958,0.17909 0.421769,0.26496 0.289494,0.17482 0.564591,0.37343 0.860728,0.53674 0.296138,0.16331 0.619002,0.29202 0.956635,0.31132 0.113213,0.006 0.228384,7.6e-4 0.338315,0.0286 0.09718,0.0246 0.185831,0.0743 0.27304,0.12377 0.08721,0.0494 0.175525,0.0996 0.272436,0.12526 0.141422,0.0374 0.290862,0.0201 0.435993,0.002 0.145131,-0.0184 0.294077,-0.0373 0.436284,-0.003 0.11581,0.0279 0.220158,0.0897 0.330209,0.13527 0.27498,0.114 0.581775,0.12586 0.878659,0.10418 0.296884,-0.0217 0.591189,-0.0752 0.888668,-0.086 0.154329,-0.006 0.312608,-2.3e-4 0.458527,-0.0508 0.111807,-0.0387 0.21335,-0.10949 0.330398,-0.12685 0.06939,-0.0103 0.14,-0.001 0.209598,0.008 0.0696,0.009 0.140474,0.017 0.209544,0.005 0.09596,-0.017 0.180296,-0.0719 0.261808,-0.12529 0.07813,-0.0512 0.156497,-0.10224 0.23852,-0.14694 0.0894,-0.0487 0.183203,-0.0899 0.281032,-0.11803 0.15976,-0.046 0.327719,-0.0569 0.488733,-0.0983 0.250784,-0.0645 0.476488,-0.20072 0.693903,-0.34138 0.224486,-0.14523 0.444598,-0.29713 0.662892,-0.45151 0.156226,-0.11049 0.311599,-0.22231 0.461964,-0.34065 0.133988,-0.10545 0.264129,-0.21617 0.404915,-0.31236 0.132033,-0.0902 0.272702,-0.16712 0.405773,-0.25579 0.133071,-0.0887 0.260034,-0.19075 0.353121,-0.32077 0.08109,-0.11325 0.135916,-0.24675 0.236299,-0.34331 0.08387,-0.0807 0.193631,-0.12955 0.281055,-0.20637 0.108084,-0.095 0.17572,-0.22665 0.239295,-0.35573 0.06358,-0.12907 0.127711,-0.26182 0.231206,-0.36177 0.06331,-0.0611 0.139044,-0.10765 0.208322,-0.16194 0.06928,-0.0543 0.134268,-0.11963 0.163824,-0.20254 0.01823,-0.0511 0.02197,-0.10617 0.02436,-0.16041 0.0024,-0.0542 0.0037,-0.10908 0.01746,-0.1616 0.01872,-0.0715 0.05974,-0.13534 0.106959,-0.1922 0.04722,-0.0569 0.10101,-0.1079 0.150406,-0.16289 0.263382,-0.29319 0.388567,-0.68105 0.569557,-1.03115 0.121118,-0.23429 0.270661,-0.45827 0.337219,-0.71348 0.02733,-0.10478 0.04002,-0.21274 0.06047,-0.31908 0.02476,-0.12874 0.06088,-0.25501 0.08962,-0.38292 0.07458,-0.33197 0.0976,-0.68649 -0.01683,-1.00691 -0.124245,-0.3479 -0.395149,-0.61921 -0.606399,-0.92227 -0.24513,-0.35166 -0.412053,-0.75069 -0.617907,-1.12669 -0.0579,-0.10576 -0.120253,-0.21146 -0.208581,-0.29353 -0.107739,-0.10011 -0.247435,-0.15891 -0.362242,-0.25083 -0.19768,-0.15826 -0.306573,-0.40099 -0.475724,-0.58944 -0.141215,-0.15733 -0.32304,-0.27453 -0.516497,-0.35978 -0.193457,-0.0853 -0.399001,-0.1398 -0.605532,-0.18495 -0.340721,-0.0745 -0.686339,-0.12423 -1.028633,-0.19111 -0.60799,-0.11879 -1.223554,-0.29262 -1.837013,-0.20641 -0.14501,0.0204 -0.287979,0.0553 -0.426086,0.10393"
       id="path855"
       inkscape:connector-curvature="0"
       inkscape:path-effect="#path-effect857;#path-effect859"
       inkscape:original-d="m 66.683746,134.3665 c -0.08909,-0.17818 -0.147743,-0.37517 -0.267269,-0.53454 -0.05345,-0.0713 -0.187587,0.0398 -0.267268,0 -0.05635,-0.0282 -0.07729,-0.10546 -0.133636,-0.13364 -0.07968,-0.0398 -0.187584,0.0398 -0.267269,0 -0.05635,-0.0282 -0.07729,-0.10546 -0.133636,-0.13363 -0.128257,-0.0641 -0.406204,0.0428 -0.53454,0 -0.05976,-0.0199 -0.07729,-0.10546 -0.133633,-0.13364 -0.178181,-0.0891 -0.489995,0.0891 -0.668174,0 -0.05635,-0.0282 -0.07729,-0.10546 -0.133635,-0.13363 -0.103034,-0.0515 -1.633313,-0.0346 -1.737252,0 -0.188989,0.063 -0.341275,0.21895 -0.53454,0.26727 -0.08643,0.0216 -0.182751,-0.0282 -0.267269,0 -0.05976,0.0199 -0.08122,0.0987 -0.133633,0.13363 -0.227645,0.15177 -0.547651,0.29924 -0.801809,0.40091 -0.553951,0.22158 -1.253133,0.43872 -1.737252,0.80181 -0.100796,0.0756 -0.166476,0.19167 -0.267271,0.26727 -0.254299,0.19072 -0.547508,0.34381 -0.801807,0.53453 -0.57925,0.43444 -2.098183,2.24553 -2.271792,2.93997 -0.05402,0.21607 0.04368,0.44977 0,0.66817 -0.01953,0.0977 -0.114101,0.1696 -0.133636,0.26727 -0.112963,0.56483 0,1.52817 0,2.13816 0,0.31181 -0.05126,0.62787 0,0.93544 0.0643,0.3858 0.423776,1.54502 0.668174,1.87089 0.0756,0.10079 0.191675,0.16647 0.267271,0.26727 0.05976,0.0797 0.0632,0.19683 0.133633,0.26727 0.07043,0.0704 0.184394,0.0784 0.267272,0.13363 0.64167,0.42778 1.355524,0.91256 2.138156,1.06908 0.08736,0.0175 0.180838,-0.0216 0.267269,0 0.193262,0.0483 0.339196,0.2282 0.534538,0.26727 0.294425,0.0589 0.643776,-0.0729 0.935445,0 0.09663,0.0242 0.170637,0.10948 0.267268,0.13364 0.206476,0.0516 2.035525,0.0591 2.271792,0 0.09663,-0.0242 0.170638,-0.10948 0.267269,-0.13364 0.17286,-0.0432 0.36168,0.0432 0.534538,0 0.241871,0.0805 0.248539,-0.21648 0.400904,-0.26727 0.08452,-0.0282 0.182753,0.0282 0.267272,0 0.05976,-0.0199 0.07387,-0.11371 0.133633,-0.13364 0.06804,-0.0227 0.535879,-0.0895 0.668173,-0.13363 0.346374,-0.11546 0.522169,-0.34811 0.80181,-0.53454 0.219987,-0.14666 0.448188,-0.25424 0.668173,-0.4009 0.104833,-0.0699 0.162438,-0.19739 0.267272,-0.26727 0.170468,-0.11365 0.987033,-0.67875 1.069078,-0.80181 0.05525,-0.0829 0.0632,-0.19684 0.133633,-0.26727 0.07043,-0.0704 0.196839,-0.0632 0.267269,-0.13364 0.09213,-0.0921 0.448508,-0.67275 0.53454,-0.8018 0.08665,-0.12998 0.352089,-0.25446 0.400905,-0.40091 0.02817,-0.0845 -0.02817,-0.18275 0,-0.26727 0.01992,-0.0598 0.09869,-0.0812 0.133633,-0.13363 0.253121,-0.37968 0.417105,-0.82611 0.668176,-1.20272 0.132458,-0.19868 0.343119,-0.57067 0.400902,-0.8018 0.02162,-0.0864 -0.02817,-0.18276 0,-0.26727 0.01992,-0.0598 0.105463,-0.0773 0.133635,-0.13364 0.03005,-0.0601 0.03173,-1.24115 0,-1.33635 -0.09957,-0.29871 -0.365558,-0.54833 -0.534537,-0.8018 -0.253122,-0.37969 -0.417105,-0.82611 -0.668176,-1.20272 -0.05525,-0.0829 -0.0632,-0.19683 -0.133633,-0.26727 -0.07043,-0.0704 -0.184394,-0.0784 -0.267269,-0.13363 -0.265237,-0.17682 -0.358418,-0.49205 -0.534541,-0.66817 -0.170804,-0.17081 -1.095877,-0.60806 -1.336347,-0.66818 -0.262866,-0.0657 -0.536868,-0.0769 -0.801809,-0.13363 -0.878321,-0.18822 -1.551953,-0.41813 -2.405425,-0.13364" />
    <path
       style="fill:#e4a21e;fill-opacity:1;fill-rule:evenodd;stroke:none;stroke-width:2;stroke-linecap:butt;stroke-linejoin:miter;stroke-miterlimit:4;stroke-dasharray:none;stroke-opacity:1"
       d="m 47.70761,169.11153 c 0.207124,-0.0702 0.393523,-0.20036 0.530699,-0.37067 0.06973,-0.0866 0.126571,-0.18261 0.188824,-0.2747 0.06225,-0.0921 0.13119,-0.18156 0.219567,-0.24898 0.145176,-0.11075 0.331548,-0.15389 0.483607,-0.25498 0.122854,-0.0817 0.219888,-0.19896 0.347143,-0.27359 0.06659,-0.0391 0.139723,-0.0654 0.210079,-0.0972 0.07035,-0.0318 0.139666,-0.0704 0.190687,-0.1283 0.03815,-0.0433 0.0644,-0.0956 0.09162,-0.14646 0.02722,-0.0509 0.05653,-0.10198 0.09913,-0.14094 0.06715,-0.0614 0.15906,-0.0858 0.24611,-0.1124 0.04353,-0.0133 0.08696,-0.0277 0.127375,-0.0486 0.04042,-0.0209 0.07796,-0.0487 0.105238,-0.0851 0.03318,-0.0443 0.04945,-0.0986 0.06771,-0.15082 0.01826,-0.0523 0.04041,-0.10555 0.08161,-0.14251 0.03547,-0.0318 0.08174,-0.0485 0.127312,-0.0624 0.04557,-0.014 0.09247,-0.0263 0.132886,-0.0515 0.04902,-0.0306 0.08511,-0.0784 0.113443,-0.12874 0.02833,-0.0504 0.04997,-0.10426 0.07718,-0.15526 0.123254,-0.23108 0.350734,-0.3876 0.503698,-0.60018 0.08802,-0.12233 0.14986,-0.26113 0.21219,-0.39835 0.07136,-0.15709 0.148512,-0.31922 0.28266,-0.42772 0.08942,-0.0723 0.198952,-0.11617 0.289526,-0.18705 0.104037,-0.0814 0.179692,-0.19746 0.216195,-0.32442 0.03066,-0.10662 0.03522,-0.22208 0.08713,-0.32013 0.02643,-0.0499 0.06396,-0.0929 0.09963,-0.13669 0.03567,-0.0438 0.0703,-0.0898 0.08936,-0.14298 0.01825,-0.0509 0.02132,-0.10585 0.02294,-0.15991 0.0016,-0.0541 0.0021,-0.10876 0.01547,-0.16115 0.02668,-0.10424 0.101326,-0.18843 0.173697,-0.26805 0.07237,-0.0796 0.147318,-0.16341 0.174838,-0.26743 0.01469,-0.0555 0.01489,-0.11365 0.01595,-0.17105 0.0011,-0.0574 0.0033,-0.11576 0.02159,-0.17017 0.02298,-0.0682 0.06966,-0.12544 0.11633,-0.1802 0.04667,-0.0548 0.09508,-0.11 0.122715,-0.17644 0.03932,-0.0945 0.03242,-0.20094 0.0452,-0.30254 0.01227,-0.0975 0.04306,-0.1918 0.07906,-0.28325 0.05279,-0.13407 0.117266,-0.26396 0.157168,-0.40241 0.09294,-0.32249 0.04672,-0.66633 0.0076,-0.99966 -0.0338,-0.28775 -0.06164,-0.5806 -0.01107,-0.86588 0.02854,-0.161 0.08175,-0.31737 0.101177,-0.47972 0.0097,-0.0812 0.01083,-0.16389 -0.0039,-0.2443 -0.01478,-0.0804 -0.04593,-0.15859 -0.09633,-0.22296 -0.03135,-0.04 -0.06951,-0.0741 -0.105945,-0.10956 -0.03643,-0.0355 -0.07175,-0.0731 -0.09562,-0.11804 -0.02555,-0.048 -0.03689,-0.10229 -0.04506,-0.1561 -0.0082,-0.0538 -0.01352,-0.1083 -0.02835,-0.16067 -0.03156,-0.11146 -0.10416,-0.20683 -0.184221,-0.29055 -0.08444,-0.0883 -0.178578,-0.16675 -0.265501,-0.2526 -0.08692,-0.0859 -0.167635,-0.18074 -0.217957,-0.29207 -0.03471,-0.0768 -0.05413,-0.15952 -0.08415,-0.23826 -0.0437,-0.1146 -0.109916,-0.22025 -0.191664,-0.31168 -0.07539,-0.0843 -0.163385,-0.15626 -0.245491,-0.23406 -0.0821,-0.0778 -0.159686,-0.16343 -0.207407,-0.26598 -0.02711,-0.0583 -0.04403,-0.12084 -0.07085,-0.17925 -0.01341,-0.0292 -0.02936,-0.0574 -0.04962,-0.0823 -0.02027,-0.0249 -0.04501,-0.0466 -0.07371,-0.061 -0.03743,-0.0188 -0.07991,-0.0248 -0.121667,-0.0283 -0.04176,-0.003 -0.08403,-0.005 -0.1246,-0.0152 -0.05327,-0.0137 -0.101642,-0.043 -0.14317,-0.0791 -0.04153,-0.0361 -0.07664,-0.0789 -0.109535,-0.12301 -0.06578,-0.0882 -0.125633,-0.18445 -0.215517,-0.2479 -0.06601,-0.0466 -0.144044,-0.0724 -0.220335,-0.099 -0.07629,-0.0266 -0.153701,-0.0556 -0.215979,-0.10709 -0.06347,-0.0525 -0.106803,-0.12458 -0.155271,-0.19115 -0.02423,-0.0333 -0.05013,-0.0656 -0.08051,-0.0934 -0.03037,-0.0278 -0.06546,-0.0511 -0.1045,-0.0641 -0.05222,-0.0175 -0.108599,-0.0162 -0.163672,-0.0153 -0.05507,8.6e-4 -0.111713,7.6e-4 -0.162991,-0.0193 -0.05787,-0.0227 -0.103288,-0.0687 -0.142761,-0.11672 -0.03947,-0.048 -0.07531,-0.0997 -0.122495,-0.14019 -0.06328,-0.0542 -0.143202,-0.085 -0.22318,-0.10845 -0.07998,-0.0235 -0.162091,-0.0408 -0.238943,-0.0731 -0.15459,-0.0649 -0.281159,-0.18726 -0.439405,-0.24264 -0.128995,-0.0452 -0.272212,-0.0431 -0.39705,-0.0988 -0.09953,-0.0443 -0.180094,-0.12214 -0.274267,-0.17694 -0.127631,-0.0743 -0.276451,-0.10426 -0.407831,-0.17168 -0.09278,-0.0476 -0.175048,-0.11293 -0.25995,-0.17349 -0.0849,-0.0606 -0.174774,-0.11749 -0.275415,-0.14482 -0.108764,-0.0295 -0.224797,-0.023 -0.333646,-0.0522 -0.104221,-0.028 -0.196894,-0.0873 -0.28645,-0.14749 -0.08956,-0.0602 -0.179262,-0.12287 -0.280955,-0.15897 -0.04318,-0.0153 -0.08813,-0.0257 -0.133666,-0.0308"
       id="path873"
       inkscape:connector-curvature="0"
       inkscape:path-effect="#path-effect875;#path-effect877"
       inkscape:original-d="m 47.70761,169.11153 c 0.638678,-0.18171 0.470728,-0.47072 0.801809,-0.80181 0.140862,-0.14086 0.375169,-0.14774 0.534538,-0.26726 0.100793,-0.0756 0.166476,-0.19168 0.267269,-0.26727 0.159369,-0.11953 0.393676,-0.12641 0.53454,-0.26727 0.07043,-0.0704 0.0632,-0.19684 0.133636,-0.26727 0.140862,-0.14086 0.393674,-0.12641 0.534538,-0.26727 0.07043,-0.0704 0.07838,-0.1844 0.133636,-0.26727 0.204671,-0.30701 0.07633,0.0573 0.400904,-0.26727 0.07043,-0.0704 0.07838,-0.18439 0.133633,-0.26727 0.104833,-0.15725 0.287512,-0.24971 0.400905,-0.4009 0.05976,-0.0797 0.07838,-0.1844 0.133636,-0.26727 0.119398,-0.1791 0.25527,-0.52254 0.400904,-0.66818 0.07043,-0.0704 0.196837,-0.0632 0.267269,-0.13363 0.07043,-0.0704 0.07838,-0.18439 0.133636,-0.26727 0.03494,-0.0524 0.10546,-0.0773 0.133633,-0.13364 0.01992,-0.0398 0,-0.0891 0,-0.13363 0.04454,-0.0891 0.07838,-0.18439 0.133636,-0.26727 0.03494,-0.0524 0.113712,-0.0739 0.133633,-0.13364 0.02817,-0.0845 -0.02162,-0.18084 0,-0.26726 0.05439,-0.21754 0.354166,-0.52796 0.400904,-0.66818 0.02817,-0.0845 -0.02817,-0.18275 0,-0.26727 0.02719,-0.0816 0.240086,-0.31935 0.267272,-0.4009 0.02817,-0.0845 -0.03984,-0.18759 0,-0.26727 0.02817,-0.0564 0.113712,-0.0739 0.133633,-0.13364 0.02817,-0.0845 -0.02162,-0.18084 0,-0.26727 0.02416,-0.0966 0.102137,-0.17277 0.133636,-0.26727 0.111487,-0.33446 0,-1.21011 0,-1.60361 0,-0.3317 0.09563,-1.04946 0,-1.33635 -0.03984,-0.11953 -0.227428,-0.14774 -0.267269,-0.26727 -0.02817,-0.0845 0.02817,-0.18275 0,-0.26727 -0.05467,-0.16399 -0.591093,-0.64764 -0.668176,-0.80181 -0.01992,-0.0398 0.01992,-0.0938 0,-0.13363 -0.05634,-0.11269 -0.210923,-0.15458 -0.267269,-0.26727 -0.01992,-0.0398 0.01992,-0.0938 0,-0.13364 -0.07894,-0.15787 -0.302623,-0.25348 -0.400905,-0.4009 -0.05525,-0.0829 -0.07838,-0.18439 -0.133633,-0.26727 -0.221607,-0.33241 -0.03071,-0.0154 -0.267271,-0.13364 -0.136155,-0.0681 -0.292484,-0.29248 -0.400902,-0.4009 -0.190439,-0.19044 -0.288732,-0.1034 -0.534541,-0.26727 -0.129974,-0.0866 -0.254455,-0.35209 -0.400904,-0.4009 -0.08452,-0.0282 -0.182751,0.0282 -0.267269,0 -0.119528,-0.0399 -0.15458,-0.21093 -0.267269,-0.26727 -0.114289,-0.0571 -0.286618,-0.0765 -0.400904,-0.13364 -0.155668,-0.0778 -0.245237,-0.18943 -0.400905,-0.26727 -0.137038,-0.0685 -0.397502,-0.0651 -0.53454,-0.13363 -0.05635,-0.0282 -0.07729,-0.10547 -0.133634,-0.13364 -0.114289,-0.0571 -0.286617,-0.0765 -0.400904,-0.13363 -0.223174,-0.11159 -0.445003,-0.28932 -0.668174,-0.40091 -0.07968,-0.0398 -0.267271,0 -0.267271,0 -0.650097,-0.41337 -0.624336,-0.35341 -0.801807,-0.4009"
       transform="rotate(0.76183767,162.63081,205.38376)"
       inkscape:transform-center-x="1.534207"
       inkscape:transform-center-y="-0.063013625"
       sodipodi:nodetypes="cccccccccccccccccccccccccccsccccccccccccccccccccccc" />
    <path
       style="fill:#e4a21e;fill-rule:evenodd;stroke:none;stroke-width:2;stroke-linecap:butt;stroke-linejoin:miter;stroke-opacity:1;stroke-miterlimit:4;stroke-dasharray:none;fill-opacity:1"
       d="m 97.954281,172.31877 c -0.09202,0.0446 -0.200097,0.055 -0.298955,0.0289 -0.09886,-0.0261 -0.18769,-0.0885 -0.245731,-0.1727 -0.01773,-0.0257 -0.03263,-0.0533 -0.05002,-0.0792 -0.01739,-0.0259 -0.03767,-0.0506 -0.06369,-0.0679 -0.0389,-0.0259 -0.08747,-0.0331 -0.134158,-0.032 -0.04669,0.001 -0.09289,0.01 -0.139508,0.0126 -0.134408,0.008 -0.267448,-0.0306 -0.392285,-0.0811 -0.125536,-0.0508 -0.245866,-0.11347 -0.36882,-0.17024 -0.10525,-0.0486 -0.212697,-0.093 -0.323742,-0.12624 -0.314673,-0.0943 -0.649473,-0.0972 -0.977238,-0.0752 -0.327765,0.022 -0.654276,0.0682 -0.982778,0.0694 -0.157321,5.6e-4 -0.317959,-0.009 -0.468757,0.036 -0.199623,0.0593 -0.36385,0.20861 -0.564748,0.26349 -0.158789,0.0434 -0.328632,0.0244 -0.489446,0.0596 -0.179931,0.0393 -0.338637,0.14385 -0.513695,0.20108 -0.146595,0.0479 -0.302097,0.0619 -0.451158,0.10144 -0.247633,0.0658 -0.470867,0.20038 -0.684987,0.34109 -0.21412,0.14072 -0.424837,0.29024 -0.660223,0.39144 -0.221102,0.0951 -0.462847,0.14702 -0.664583,0.27827 -0.127317,0.0828 -0.233816,0.19434 -0.359825,0.27914 -0.128343,0.0864 -0.274297,0.14331 -0.405423,0.2254 -0.166276,0.10409 -0.30493,0.24613 -0.439362,0.389 -0.534714,0.56827 -1.032433,1.1743 -1.618177,1.68981 -0.259098,0.22803 -0.540646,0.44461 -0.713039,0.74362 -0.183251,0.31785 -0.223706,0.69467 -0.284217,1.05654 -0.01504,0.0899 -0.03158,0.18001 -0.03477,0.27114 -0.0032,0.0911 0.0076,0.18426 0.04495,0.26743 0.05249,0.11673 0.152278,0.20425 0.249055,0.28802 0.501223,0.43384 1.000306,0.87016 1.496196,1.31009 0.119315,0.10585 0.238841,0.21222 0.370373,0.30244 0.06243,0.0428 0.127761,0.0821 0.197988,0.11034 0.07023,0.0283 0.145699,0.0454 0.221363,0.0429 0.07266,-0.002 0.143341,-0.0226 0.214454,-0.0377 0.07111,-0.0151 0.145578,-0.025 0.215996,-0.007 0.03521,0.009 0.0689,0.0252 0.09624,0.0491 0.02734,0.024 0.04808,0.0559 0.05615,0.0914 0.0081,0.0354 0.0029,0.0742 -0.01651,0.10496 -0.0097,0.0154 -0.02279,0.0286 -0.03824,0.0382 -0.01544,0.01 -0.03322,0.0154 -0.05136,0.0166 -0.03077,0.002 -0.06099,-0.01 -0.08748,-0.0254 -0.02649,-0.0158 -0.05019,-0.0358 -0.0757,-0.0531 -0.02551,-0.0173 -0.05369,-0.0322 -0.08431,-0.0357 -0.01531,-0.002 -0.03106,-6.2e-4 -0.04566,0.004 -0.01459,0.005 -0.02799,0.0138 -0.0375,0.0259 -0.0087,0.0111 -0.01406,0.0248 -0.01569,0.0389 -0.0016,0.0141 3.96e-4,0.0285 0.0053,0.0418 0.0098,0.0266 0.03066,0.0481 0.05498,0.0627 0.02432,0.0145 0.05196,0.0227 0.07974,0.0282 0.02779,0.006 0.05601,0.009 0.08382,0.0141 0.14432,0.0281 0.268688,0.11542 0.398928,0.18367 0.161727,0.0847 0.337515,0.14203 0.493424,0.23705 0.10482,0.0639 0.199355,0.14409 0.306991,0.20311 0.174038,0.0954 0.374242,0.13129 0.556139,0.21072 0.172189,0.0752 0.324768,0.18792 0.484946,0.28614 0.160178,0.0982 0.334943,0.18409 0.522469,0.19579 0.15721,0.01 0.316091,-0.0331 0.471502,-0.007 0.116195,0.0192 0.222497,0.0755 0.325745,0.13214 0.103249,0.0566 0.207831,0.11524 0.323024,0.13973 0.09699,0.0206 0.197416,0.0161 0.296311,0.009 0.09889,-0.007 0.198336,-0.0171 0.296968,-0.007 0.171096,0.0177 0.329619,0.0944 0.494171,0.14448 0.299024,0.091 0.61778,0.0939 0.929613,0.0724 0.311833,-0.0215 0.622376,-0.0666 0.934944,-0.0685 0.203736,-0.001 0.411608,0.0153 0.607763,-0.0397 0.125615,-0.0353 0.241288,-0.0987 0.363162,-0.14526 0.306628,-0.1172 0.643491,-0.12506 0.961161,-0.20778 0.37962,-0.0988 0.722355,-0.30169 1.063139,-0.49598 0.521811,-0.2975 1.055291,-0.58182 1.625523,-0.77057 0.20206,-0.0669 0.4088,-0.1218 0.60305,-0.2088 0.19425,-0.087 0.37851,-0.20982 0.49934,-0.38504 0.0769,-0.11152 0.1272,-0.24258 0.22252,-0.33883 0.0801,-0.0808 0.18558,-0.1306 0.27715,-0.19812 0.0904,-0.0667 0.16711,-0.15078 0.23103,-0.24311 0.0645,-0.0931 0.11852,-0.19728 0.20816,-0.26656 0.0525,-0.0406 0.11438,-0.0668 0.17406,-0.0958 0.0597,-0.029 0.11926,-0.0624 0.162,-0.11313 0.0342,-0.0406 0.0558,-0.0904 0.0733,-0.14053 0.0175,-0.0502 0.0313,-0.1017 0.0525,-0.15042 0.0425,-0.0977 0.11271,-0.1804 0.1842,-0.2594 0.0715,-0.079 0.14592,-0.15681 0.19944,-0.24893 0.10889,-0.18742 0.12077,-0.416 0.1,-0.63176 -0.0208,-0.21576 -0.0714,-0.42867 -0.0769,-0.64536 -0.006,-0.23986 0.0426,-0.48627 -0.026,-0.7162 -0.0282,-0.0947 -0.0754,-0.18245 -0.12307,-0.26898 -0.0737,-0.13373 -0.14956,-0.26661 -0.23778,-0.39123 -0.10689,-0.15099 -0.23152,-0.28918 -0.36847,-0.41354 -0.0834,-0.0757 -0.17125,-0.14628 -0.25523,-0.2213 -0.16584,-0.14816 -0.31614,-0.31336 -0.48634,-0.45649 -0.13993,-0.11767 -0.29239,-0.21962 -0.43451,-0.33464 -0.23162,-0.18745 -0.43567,-0.40945 -0.68272,-0.57604 -0.0846,-0.057 -0.17384,-0.10726 -0.26752,-0.14761 -0.09704,-0.0418 -0.19865,-0.0729 -0.293297,-0.1199 -0.278886,-0.13835 -0.476267,-0.40225 -0.744815,-0.55974 -0.09766,-0.0573 -0.204201,-0.0999 -0.315103,-0.12264 -0.126658,-0.026 -0.257149,-0.026 -0.38524,-0.0437 -0.241221,-0.0332 -0.47122,-0.12912 -0.676892,-0.25947 -0.113756,-0.0721 -0.220574,-0.15466 -0.333958,-0.22734 -0.113383,-0.0727 -0.235026,-0.13602 -0.36668,-0.1644 -0.151142,-0.0326 -0.310224,-0.0174 -0.457841,0.0286 -0.147617,0.046 -0.284527,0.12186 -0.411524,0.21005 -0.08473,0.0588 -0.165521,0.12335 -0.241655,0.19295"
       id="path900"
       inkscape:connector-curvature="0"
       inkscape:path-effect="#path-effect902;#path-effect904"
       inkscape:original-d="m 97.954281,172.31877 c -0.178181,-0.0445 -0.370266,-0.0515 -0.53454,-0.13363 -0.03984,-0.0199 0.0315,-0.10214 0,-0.13364 -0.063,-0.063 -0.178178,0 -0.267269,0 -0.313396,0 0.063,0.0315 -0.267269,-0.13364 -0.106907,-0.0534 -0.293997,0.0535 -0.400904,0 -0.132575,-0.0663 -0.262483,-0.22112 -0.400905,-0.26727 -0.20129,-0.0671 -2.385917,-0.0383 -2.539061,0 -0.193262,0.0483 -0.341275,0.21896 -0.534537,0.26727 -0.08643,0.0216 -0.179912,-0.0175 -0.267272,0 -0.268356,-0.0307 -0.435454,0.20909 -0.668173,0.26728 -0.08643,0.0216 -0.18084,-0.0216 -0.267269,0 -0.571521,0.14288 -1.105408,0.50288 -1.603619,0.8018 -0.205695,0.12342 -0.462475,0.14385 -0.668173,0.26727 -0.108037,0.0648 -0.159232,0.20245 -0.267269,0.26727 -0.12079,0.0725 -0.280114,0.0612 -0.400905,0.13364 -0.108037,0.0648 -0.168886,0.18856 -0.267268,0.26727 -0.71019,0.56815 -1.303581,1.16175 -1.870888,1.87088 -0.621154,0.77644 -1.069078,0.75791 -1.069078,1.87089 0,0.17818 -0.05634,0.3655 0,0.53454 0.01992,0.0598 0.09869,0.0812 0.133636,0.13363 0.433959,0.65094 0.999638,0.9868 1.603616,1.46998 0.09838,0.0787 0.159234,0.20245 0.267271,0.26728 0.120788,0.0725 0.27491,0.0706 0.400902,0.13363 1.60474,0.80237 -0.574791,-0.21124 0.668176,0.53454 0.120788,0.0725 0.27491,0.0706 0.400902,0.13363 0.627491,0.31375 0.168127,0.20089 0.668176,0.40091 0.130787,0.0523 0.27491,0.0706 0.400902,0.13363 0.337302,0.16865 0.685673,0.45786 1.069078,0.53454 0.131041,0.0262 0.26909,-0.022 0.400905,0 0.271899,-0.0464 0.432951,0.22023 0.668173,0.26727 0.06486,0.013 0.603314,-0.013 0.668177,0 0.138125,0.0276 0.261956,0.11048 0.400902,0.13364 0.500845,0.0835 1.094898,0 1.603618,0 0.288912,0 0.656836,0.0697 0.935442,0 0.09663,-0.0242 0.170641,-0.10948 0.267272,-0.13364 0.25963,-0.0649 0.542176,-0.0687 0.801806,-0.13363 0.416187,-0.10405 0.804556,-0.37528 1.202714,-0.53454 0.595633,-0.23826 1.210334,-0.45053 1.737252,-0.80181 0.272718,-0.18181 0.998768,-0.46424 1.202718,-0.66817 0.0704,-0.0704 0.0632,-0.19684 0.13363,-0.26728 0.0704,-0.0704 0.19684,-0.0632 0.26727,-0.13363 0.0704,-0.0704 0.0632,-0.19684 0.13363,-0.26727 0.0704,-0.0704 0.19684,-0.0632 0.26727,-0.13363 0.0704,-0.0704 0.0632,-0.19684 0.13364,-0.26727 0.16276,-0.16277 0.29857,-0.0626 0.4009,-0.26727 0.0199,-0.0398 -0.0199,-0.0938 0,-0.13364 0.10193,-0.20385 0.30125,-0.33523 0.40091,-0.53454 0.0322,-0.0645 0.0388,-1.92685 0,-2.00452 -0.0282,-0.0563 -0.0891,-0.0891 -0.13364,-0.13363 0,-0.0891 0.0282,-0.18275 0,-0.26727 -0.0665,-0.19953 -0.41625,-0.35712 -0.53454,-0.53454 -0.0553,-0.0829 -0.0632,-0.19684 -0.13363,-0.26727 -0.0704,-0.0704 -0.1844,-0.0784 -0.26727,-0.13363 -0.25699,-0.17133 -0.41118,-0.49685 -0.66817,-0.66818 -0.0829,-0.0553 -0.1844,-0.0784 -0.26727,-0.13363 -0.28808,-0.19206 -0.48552,-0.51003 -0.80181,-0.66818 -0.0399,-0.0199 -0.0938,0.0199 -0.133638,0 -0.320141,-0.16007 -0.632593,-0.46627 -0.935443,-0.66817 -0.05242,-0.035 -0.07387,-0.11372 -0.133635,-0.13364 -0.08452,-0.0282 -0.178179,0 -0.267269,0 -0.222724,-0.0445 -0.45851,-0.0463 -0.668174,-0.13363 -0.331507,-0.13813 -0.607264,-0.38868 -0.935445,-0.53454 -0.376973,-0.16754 -0.94969,0.14788 -1.202711,0.40091"
       transform="translate(7.4835465,-27.796031)" />
    <path
       style="fill:#e4a21e;fill-rule:evenodd;stroke:none;stroke-width:2;stroke-linecap:butt;stroke-linejoin:miter;stroke-opacity:1;stroke-miterlimit:4;stroke-dasharray:none;fill-opacity:1"
       inkscape:path-effect="#path-effect908;#path-effect910"
       inkscape:original-d="m 94.770377,169.62586 c 0.03545,-0.72798 0,0 -1.713334,0.24695 -1.325576,1.02134 -1.248383,1.06048 -2.283081,1.41774 -0.759824,0.38537 -1.459633,0.8476 -1.906846,1.56276 -0.317832,0.63646 -0.743453,1.24201 -1.033649,1.90498 -0.502949,0.89242 -0.684162,1.90103 -0.703602,2.90587 0.05797,0.9552 0.782185,1.55294 1.26762,2.29857 0.833916,1.68186 1.883962,1.22585 2.843521,2.21179 0.671801,0.37256 1.441459,0.52887 2.159872,0.79563 0.795703,0.27392 1.594485,0.44348 2.414102,0.54665 1.071403,0.10048 2.157039,-0.0113 3.233851,0.0769 1.031889,-0.0432 2.064359,-0.18527 3.005649,-0.64486 1.00953,-0.41206 2.17144,-0.58893 2.94669,-1.42813 0.3891,-0.35857 1.07257,-0.59044 0.86471,-0.80596 0.81567,-0.45803 1.23659,-1.3353 1.82409,-2.0378 0.45475,-0.71507 0.72759,-1.44521 0.5083,-2.31879 -0.16206,-1.05687 -0.92254,-1.87039 -1.36642,-2.80837 -0.77747,-0.78872 -1.24856,-1.96711 -2.39029,-2.31925 -0.80571,-0.2396 -1.49627,-0.628 -2.3446,-0.64902 -0.6715,-0.26568 -1.40518,-0.3032 -2.138155,-0.4677 -0.892319,-0.0958 -1.754682,-0.40659 -2.678594,-0.3105 -0.794091,-0.26789 -1.666554,-0.12849 -2.509834,-0.17746"
       id="path906"
       d="m 94.770377,169.62586 c -0.02068,-0.10242 -0.07172,-0.19851 -0.144991,-0.27299 -0.108448,-0.11023 -0.262463,-0.17001 -0.416885,-0.17816 -0.154422,-0.008 -0.308924,0.0327 -0.447559,0.10117 -0.277271,0.137 -0.487248,0.37622 -0.703899,0.59693 -0.383764,0.39095 -0.813827,0.74244 -1.301971,0.99111 -0.329675,0.16794 -0.681931,0.28717 -1.016682,0.44475 -0.727653,0.34253 -1.36751,0.86796 -1.850127,1.5113 -0.447126,0.59603 -0.755736,1.28207 -1.066525,1.95926 -0.211159,0.4601 -0.425799,0.92109 -0.56806,1.40693 -0.14226,0.48585 -0.210309,1.00178 -0.122333,1.50032 0.09439,0.53486 0.36257,1.02339 0.667016,1.47316 0.199256,0.29437 0.415563,0.57673 0.62853,0.86134 0.329005,0.43968 0.660323,0.89479 1.118396,1.19766 0.459361,0.30372 1.017772,0.43427 1.469312,0.7495 0.127041,0.0887 0.244038,0.19098 0.369515,0.28187 0.609286,0.44133 1.375692,0.58819 2.110026,0.75176 0.806193,0.17958 1.605846,0.39274 2.421325,0.52384 1.042938,0.16767 2.109554,0.19948 3.157551,0.0671 1.017694,-0.12859 2.008714,-0.40986 3.005154,-0.65345 0.44213,-0.10808 0.88729,-0.20925 1.31507,-0.3647 0.42778,-0.15545 0.84078,-0.36808 1.17666,-0.67524 0.16627,-0.15205 0.31459,-0.32775 0.50739,-0.44434 0.13538,-0.0819 0.28769,-0.13137 0.42806,-0.20435 0.0702,-0.0365 0.13771,-0.0791 0.19583,-0.1328 0.0581,-0.0537 0.10672,-0.11881 0.13462,-0.19283 0.0266,-0.0707 0.0337,-0.14703 0.0491,-0.22102 0.0358,-0.17225 0.11736,-0.33292 0.22237,-0.47409 0.10501,-0.14116 0.23316,-0.26371 0.3687,-0.37588 0.27108,-0.22434 0.5748,-0.41064 0.82111,-0.66192 0.16534,-0.16868 0.30169,-0.36365 0.42453,-0.5654 0.32948,-0.54114 0.57027,-1.15815 0.55012,-1.79138 -0.009,-0.26872 -0.0639,-0.53426 -0.14043,-0.79198 -0.26794,-0.90168 -0.78973,-1.70294 -1.29948,-2.4935 -0.48377,-0.75026 -0.98813,-1.52922 -1.74814,-1.99753 -0.26485,-0.1632 -0.55387,-0.28368 -0.84749,-0.38646 -0.69184,-0.24216 -1.41284,-0.38868 -2.11941,-0.58372 -0.26621,-0.0735 -0.53054,-0.15391 -0.7982,-0.22192 -0.46037,-0.11698 -0.9297,-0.19698 -1.401611,-0.25099 -0.872739,-0.0999 -1.758916,-0.11176 -2.615145,-0.30803 -0.13339,-0.0306 -0.265741,-0.0656 -0.399203,-0.0958 -0.697649,-0.15818 -1.424788,-0.18527 -2.132274,-0.0795 z"
       inkscape:connector-curvature="0"
       transform="translate(-0.26726953,-0.53453906)"
       sodipodi:nodetypes="cccccccccccccccccccccc" />
  </g>
</svg>
