<?xml version="1.0" encoding="UTF-8" standalone="no"?>
<svg
   xmlns:dc="http://purl.org/dc/elements/1.1/"
   xmlns:cc="http://creativecommons.org/ns#"
   xmlns:rdf="http://www.w3.org/1999/02/22-rdf-syntax-ns#"
   xmlns:svg="http://www.w3.org/2000/svg"
   xmlns="http://www.w3.org/2000/svg"
   xmlns:sodipodi="http://sodipodi.sourceforge.net/DTD/sodipodi-0.dtd"
   xmlns:inkscape="http://www.inkscape.org/namespaces/inkscape"
   height="900"
   width="600"
   version="1.1"
   id="svg55"
   sodipodi:docname="mouse.svg"
   inkscape:version="0.92.4 (5da689c313, 2019-01-14)">
  <metadata
     id="metadata59">
    <rdf:RDF>
      <cc:Work
         rdf:about="">
        <dc:format>image/svg+xml</dc:format>
        <dc:type
           rdf:resource="http://purl.org/dc/dcmitype/StillImage" />
        <dc:title></dc:title>
      </cc:Work>
    </rdf:RDF>
  </metadata>
  <sodipodi:namedview
     pagecolor="#ffffff"
     bordercolor="#666666"
     borderopacity="1"
     objecttolerance="10"
     gridtolerance="10"
     guidetolerance="10"
     inkscape:pageopacity="0"
     inkscape:pageshadow="2"
     inkscape:window-width="1280"
     inkscape:window-height="1001"
     id="namedview57"
     showgrid="false"
     inkscape:zoom="0.52444444"
     inkscape:cx="222.38312"
     inkscape:cy="531.28129"
     inkscape:window-x="-8"
     inkscape:window-y="-8"
     inkscape:window-maximized="1"
     inkscape:current-layer="svg55" />
  <defs
     id="defs7">
    <linearGradient
       id="a"
       y2="761.8"
       gradientUnits="userSpaceOnUse"
       y1="388.2"
       gradientTransform="matrix(1.485,0,0,1.485,-216.699,-392.80244)"
       x2="439.6"
       x1="347.2">
      <stop
         stop-color="#d38d5f"
         offset="0"
         id="stop2" />
      <stop
         stop-color="#a05a2c"
         offset="1"
         id="stop4" />
    </linearGradient>
  </defs>
  <path
     inkscape:connector-curvature="0"
     id="path9"
     d="m 533.401,329.99756 c 0.33,0.15 0.97,0.33 0.97,0.34 0,0 -0.92,-0.32 -0.97,-0.34 z" />
  <path
     inkscape:connector-curvature="0"
     id="path11"
     d="m 230.801,661.49756 c -5.17,11.15 -12.25,24.68 -20.26,37.72 -9.95,16.24 -21.52,31.4 -25.3,34.75 -1.38,1.22 -5.23,2.17 -11.35,1.33 -6.1,-0.85 -12.06,-3.03 -16.96,-4.5 4.03,1.2 0.4,0 -2.11,-1.46 -2.49,-1.53 -5.98,-3.76 -10.02,-6.41 -8.05,-5.34 -18.36,-12.42 -28.53,-19.64 -10.16,-7.22 -20.23,-14.6 -27.77,-20.46 -3.77,-2.93 -6.94,-5.5 -9.02,-7.31 -0.83,-0.73 -1.3,-1.19 -1.69,-1.57 -2.09,-4.09 -4.86,-9.11 -7.54,-14.77 -2.97,-6.26 -5.32,-13.18 -5.57,-15.16 -1.03,-8.18 -3.86,-19.29 -5.16,-31.11 -1.29,-11.81 1.15,-22.53 1.3,-22.71 2.7,-3.41 5.39,-6.56 7.91,-9.49 2.85,12.57 4.86,21.15 8.91,28.46 3.79,6.83 7.56,11.8 16.32,16.67 2.2,1.22 4.87,2.54 9.12,2.83 4.26,0.28 10.71,-1.7 14.38,-5.74 7.33,-8.08 5.58,-14.65 4.65,-21.22 -0.98,-6.79 -0.54,-23.39 -0.91,-39.01 -0.18,-7.81 -0.59,-15.55 -1.96,-22.89 -1.35,-7.35 -2.99,-15 -10.59,-21.65 -8.69,-7.6 -20.32,-10.01 -29.23,-8.79 -8.92,1.22 -15.75,4.6 -21.22,6.99 -11.84,5.19 -19.07,14.05 -28.02,24.6 -8.94,10.54 -17.36,22.29 -22.81,32.77 -5.94,11.41 -5.42,22.49 -4.93,32.75 0.49,10.26 1.93,19.13 2.8,23.48 0,0 0.73,5.09 1.64,11.06 0.9,5.99 2.18,13.62 4.04,21.94 3.71,16.66 9.29,36.03 20.83,51.57 3.03,4.06 5.35,5.72 8.9,8.69 3.55,2.96 7.91,6.37 12.95,10.15 10.05,7.55 22.72,16.54 35.74,25.42 13.04,8.88 26.42,17.63 37.92,24.65 11.51,7.04 19.82,12.14 28.2,14.93 24.04,8.02 53.85,3.03 75.33,-19.31 2.5,-2.61 65.19,-85.39 69.69,-90.2 m -33.32,14.36 c -6.22,14.31 -10.89,75.12 -6.9,110.4 -2.27,0 -4.65,0.26 -7.22,0.78 -4.88,1 -11.23,3.26 -15.8,9.55 -5.14,7.06 -4.94,12.42 -5.17,17.97 -0.21,5.54 0.27,11.21 1.15,16.72 0.87,5.53 2.11,10.79 4.02,15.7 0.97,2.47 2.04,4.84 3.91,7.49 1.87,2.63 4.7,6.43 11.4,7.91 6.17,1.37 10.74,-0.43 14.24,-2.37 3.23,3.26 8.57,6.96 15.7,6.96 7.23,0 12.73,-3.8 15.89,-6.93 2.79,-2.78 4.46,-5.38 5.87,-7.7 0.9,2.16 2.02,4.43 4.01,6.95 2.81,3.57 8.3,7.83 15.1,8.34 13.71,1.02 24.1,-7.21 30.55,-15.91 6.45,-8.69 10.35,-18.94 10.35,-30.09 0,-7.39 -0.15,-17.33 -2.73,-27.47 -2.59,-10.13 -9,-22.92 -22.89,-27.02 -8.21,-2.43 -16.01,0.43 -20.86,3.52 -4.87,3.09 -8.23,6.64 -11.14,9.89 -0.91,1.01 -1.34,1.58 -2.14,2.51 -2.72,-25.26 1.29,-51.5 6.85,-78.93 1.03,-6.09 1.24,-7.23 2.49,-10.59 26.56,5.07 64.37,8.04 100.5,4.75 0.38,12.2 -0.52,28.35 -3,44.41 -3.65,23.49 -10.6,47.36 -16.69,58.13 -6.16,10.9 -2.73,22.15 3.31,29.68 6.05,7.53 18.14,13.19 29.87,8.9 0.86,-0.31 18.13,-3.18 34.07,-3.91 15.93,-0.71 33.52,-0.15 39.78,1.07 10.49,2.02 14.19,-1.96 17.59,-3.93 3.4,-1.96 5.92,-4 5.92,-4 l 0.15,-0.15 c 0,0 -0.19,0.31 -0.25,0.33 -0.15,0 -0.23,-1.75 3.83,3.82 4.8,6.6 12.71,8.7 18.46,8.43 5.76,-0.27 10.65,-2.18 15.12,-5.11 8.95,-5.83 16.47,-17.14 16.07,-31.04 -0.58,-19.79 -3.92,-37.9 -18.92,-49.2 -7.5,-5.66 -19.4,-7.19 -28.62,-3.28 -9.22,3.91 -16.4,11.12 -23.5,21.18 0.3,-0.42 -3.84,3.1 -10.73,5.34 -6.89,2.25 -16,3.94 -24.77,4.7 -8.6,0.74 -16.96,0.55 -22.43,-0.24 0.18,-2.14 0.15,-2.05 0.59,-5.17 1.18,-7.1 3.02,-16.42 4.9,-27.13 3.35,-18.92 6.75,-42.3 7.31,-66.98 17.17,-9.34 30.83,-22.44 41.67,-36.78 67.04,-74.65 12.73,-176.6 9.29,-184.5 -0.2,-0.15 -0.36,-0.15 -0.55,-0.22 -16.7,-40.95 -33.05,-74.11 -42.34,-92.43 7.7,-1.89 14.76,-4.18 21.35,-6.78 2.93,4.74 8.21,7.5 13.78,7.19 l 12.58,-0.68 c 1.37,-0.15 2.7,-0.34 4,-0.79 l 9.2,-0.73 c 8.01,-0.62 14.14,-7.36 14.02,-15.38 l -0.44,-31.37 c 3.35,-4.68 6.55,-9.59 9.56,-14.74 0.58,0 1.15,0.14 1.73,0 19.33,-1.61 34.12,-15.79 36.54,-33.94 1.35,-10.01 -0.8,-19.6 -5.71,-28.54 -4.92,-8.96 -14.6,-18.39 -28.16,-18.39 -3.89,0 -7.61,0.36 -11.13,1.1 -4.11,-3.19 -8.4,-6.43 -11.83,-9.5 -2.07,-1.85 -3.64,-3.6 -5.08,-5.2 0.62,-2.33 1.17,-4.66 1.47,-6.98 0.33,-2.72 0.15,-5.2 0,-7.71 13.54,-6.98 25.71,-17.61 36.04,-29.79 13.44,-15.8 23.84,-34.07 27.34,-52.74 4.83,-25.69 1.83,-55.49 -10.44,-81.69 -12.2,-26.34 -35.1,-49.2 -68.2,-55.1 -3.6,-0.649 -7.2,-0.901 -10.6,-0.842 l 0.1,-0.059 c -25.9,0.4748 -46.05,17.69 -61.76,36.34 -13.55,16.08 -24.06,34.1 -31.63,48.68 -10.16,-0.921 -19.99,-0.713 -29.66,0 -1.07,-3.787 -3.57,-6.995 -6.95,-8.985 2.49,-2.54 4.97,-5.228 7.32,-8.257 10,-13.03 -4.9,-30.52 -19.3,-22.68 -26.1,14.17 -50.3,29.93 -68.9,49.86 -2.8,-4.37 -6,-9.06 -9.6,-13.95 -13.5,-17.89 -32.9,-38.61 -59.7,-46.11 -25.8,-7.19 -60.9,-5.17 -90.5,14.84 -29.65,19.98 -50.94,58.96 -46.69,117.9 4.396,60.93 44.27,97 83.05,111.8 19.38,7.41 38.55,10.11 54.8,8.83 4.91,-0.4 9.5,-1.32 13.93,-2.57 1.23,4.13 2.49,7.96 3.85,11.07 3.28,7.57 5.98,11.94 9.6,22.33 1.37,3.91 1.55,5.68 1.62,6.82 -9.58,5.95 -9.58,19.88 0,25.84 l -1.69,5.27 c -4.05,12.76 9.15,24.16 21.18,18.28 3.72,10.1 6.01,22.77 5.98,22.96 -2.78,20.44 -5.49,25.8 -13.9,39.18 -8.39,13.4 -22.48,33.34 -43.97,74.73 -25.34,48.79 -16.43,107.1 -16.43,107.1 0.4,2.97 1.67,5.75 3.64,8.01 l -1.29,4.94 c -1.99,7.69 2.26,15.62 9.77,18.21 l 0.62,10.32 c 0.64,10.13 10.83,16.8 20.37,13.35 l 1.82,2.87 c 0.8,1.24 1.78,2.36 2.69,3.53" />
  <path
     style="fill:#d38d5f"
     inkscape:connector-curvature="0"
     id="path13"
     d="m 262.001,645.19756 c 2.81,12.61 -48.57,83.96 -66.77,100.1 -12.69,11.21 -35.73,2.11 -42.73,0 -7.01,-2.11 -84.07,-56.05 -87.58,-63.04 -3.5,-7.01 -14,-25.23 -15.41,-36.43 -1.4,-11.21 -12.18,-50.64 -0.7,-65.15 13.31,-16.81 27.33,-35.04 32.23,-14.02 4.9,21.01 6.31,28.72 9.81,35.03 3.49,6.31 18.91,21.71 16.1,2.09 -2.79,-19.6 2.81,-64.43 -8.4,-74.25 -11.2,-9.8 -23.11,-4.2 -34.32,0.71 -11.22,4.9 -34.32,32.93 -43.44,50.44 -6.27,12.06 -2.1,39.22 -0.7,46.23 1.41,7.01 5.61,53.94 23.82,78.46 7.71,10.38 97.38,72.16 116.3,78.47 18.92,6.3 42.05,2.79 59.56,-15.42 17.51,-18.22 85.98,-117.6 85.98,-117.6 z" />
  <path
     style="fill:#c87137"
     inkscape:connector-curvature="0"
     id="path15"
     d="m 445.601,675.89756 c -5.59,5.6 -28.03,18.89 -28.03,18.89 22.45,-1.03 10.9,104.2 -9.79,140.8 -4.37,7.71 4.65,20.49 14.72,16.8 12.49,-4.58 63.14,-7.1 81.96,-3.48 3.99,0.77 11.18,-4.91 11.18,-4.91 0,0 12.82,-10.43 25.47,7.01 4.61,6.32 22.63,-1.5 22.14,-18.35 -0.99,-34.57 -18.84,-57.77 -43.39,-22.97 -13.01,18.43 -82.6,22.08 -86.18,9.79 -2.23,-15.31 20.05,-81.73 11.92,-143.6 z m -160.4,18.89 c -17.18,57.55 -8.9,109.5 -9.09,135.9 0,0 -21.04,-5.56 -26.64,2.14 -5.62,7.71 0,40.59 6.31,42 6.3,1.4 14.7,-12.58 14.7,-12.58 0,0 4.23,16.8 11.93,16.8 7.7,0 11.91,-16.1 15.41,-16.8 3.51,-0.69 14.01,-4.2 16.1,-0.69 2.11,3.5 3.51,17.67 10.5,18.19 13.08,0.98 24.55,-16.81 24.55,-30.82 0,-14 -1.11,-35.89 -14.72,-39.92 -11.2,-3.29 -23.12,20.29 -28.02,20.99 -4.92,0.69 -14.72,-3.48 -14.72,-3.48 -7.08,-34.01 -1.63,-68.06 5.52,-102.1 l 5.66,-26.87 z" />
  <path
     style="fill:#d38d5f"
     inkscape:connector-curvature="0"
     id="path17"
     d="m 414.401,122.89756 c 0,0 44.58,-112 100.1,-102 55.47,9.906 74.75,74.27 66.37,118.9 -7.26,38.73 -58.45,91.14 -91.14,75.29 -32.68,-15.84 -75.29,-92.13 -75.29,-92.13 z" />
  <path
     style="fill:#a05a2c"
     inkscape:connector-curvature="0"
     id="path19"
     d="m 419.401,100.99756 41.33,-11.91 -15.41,18.22 c 0,0 13.32,-2.11 30.13,0.7 16.81,2.79 52.54,28.02 52.54,28.02 0,0 -18.22,-2.8 -40.63,-3.5 23.81,2.79 42.73,27.31 42.73,27.31 l -30.12,0.71 c 11.06,-1.01 19.26,43.98 18.91,46.93 -1.1,9.28 16.81,-1.39 16.81,-1.39 l -69.36,34.32 z" />
  <path
     inkscape:connector-curvature="0"
     style="fill:url(#a)"
     id="path21"
     d="m 293.501,126.79756 c 16.99,-25.68 45.5,-45.61 78.27,-63.4 -11.37,14.64 -34.8,27.58 -29.72,44.58 5.97,-12.19 16.11,-13.65 26.75,-13.87 l -7,12.89 c 23.14,-2.25 37.97,-4.12 58.45,-1 3.54,-4.95 22.67,-9.905 35.68,-14.87 -7.53,6.282 -20.83,12.55 -18.84,18.84 29.88,-2.45 55.62,7.52 80.26,20.8 -19.22,-1.84 -42.36,-5.66 -46.57,0 24.68,1.81 37.64,11.45 46.57,23.78 l -29.73,0.99 c 0,0 8.92,10.89 17.83,30.72 8.91,19.81 2.97,42.59 7.93,55.46 4.95,12.89 49.53,42.61 49.53,42.61 -28.57,60.47 -44.19,91.26 -114.9,102 0,0 66.36,126.8 74.29,183.3 5.14,36.62 -23.77,132.8 -108,140.7 -84.22,7.92 -143.6,-11.89 -159.5,-36.67 l -15.9,-24.8 -3.96,15.84 -1.98,-31.7 -8.91,7.93 5.94,-22.78 -7.93,3.96 c 0,0 -7.36,-55.27 14.87,-98.09 42.31,-81.5 53.49,-75.29 59.45,-118.9 2.06,-15.24 -15.86,-51.52 -15.86,-51.52 l -11.89,12.88 7.92,-24.76 -12.88,1.97 c 0,0 12.88,-1.97 4.96,-24.77 -8,-22.8 -13,-21.8 -17.9,-53.5 -7.9,27.7 -138.7,15.9 -146.6,-94.1 -7.96,-109.9 75.3,-128.8 117.9,-116.9 42.61,11.88 71.33,72.31 71.33,72.31 z" />
  <path
     style="fill:#a05a2c"
     inkscape:connector-curvature="0"
     id="path23"
     d="m 513.501,52.60756 c -6.71,0.148 -14.22,1.827 -21.9,6.817 -17.82,11.61 -21.54,46.21 -25.5,50.18 l 9.67,-6.55 40.61,-2.97 -35.68,-9.936 c 20.11,-38.49 43.64,-27.99 58.47,-29.7 0,0 -10.89,-8.019 -25.67,-7.841 z m -303.5,36.56 c -1.94,0 -3.81,0.223 -5.65,0.609 -9.82,2.109 -33.66,15.46 -33.66,15.46 0,0 33.88,-11.97 49.06,-5.611 18.87,7.901 37.67,35.3 37.82,48.31 l -29.42,-4.19 35.73,13.32 -11.92,49.71 c 0,0 18.9,-34.31 21.73,-52.53 3.84,-24.92 -34.58,-65.31 -63.69,-65.06 z m 282.6,151 c -20.91,0.37 -57.49,5.08 -67.38,10.91 -5.63,3.3 -10.92,15.36 -10.92,15.36 31.12,-8.33 83.35,-20.91 101.6,-14.85 l -8.4,-8.91 c 0.95,-1.93 -5.35,-2.67 -14.85,-2.5 z m -148.2,115.1 c 0,0 31.37,59.95 51.85,74.25 21.63,15.14 53.25,5.31 71.99,-3.06 -11.34,-23.58 -19.96,-40.09 -19.96,-40.09 -37.01,0.64 -72.26,-11.66 -103.9,-31.1 z" />
  <g
     id="g31"
     transform="translate(7.001,-0.00244)">
    <path
       inkscape:connector-curvature="0"
       id="path25"
       d="m 458.9,239.8 c 2.27,-12.55 -1.98,-35.67 -13.87,-35.67 -11.89,0 -19.82,22.79 -18.82,30.71 0.98,7.93 8.91,22.79 15.85,23.77 6.93,1 15.34,-10.52 16.84,-18.81 z" />
    <path
       inkscape:connector-curvature="0"
       id="path27"
       d="m 480.6,235.8 c -3.4,-12.3 1.97,-35.67 13.87,-35.67 11.88,0 16.84,22.79 15.85,30.71 -0.98,7.93 -4.95,17.83 -11.89,18.83 -6.93,0.99 -15.83,-6.61 -17.83,-13.87 z" />
    <path
       inkscape:connector-curvature="0"
       id="path29"
       d="m 552,268.5 c -23.78,0 -25.75,16.84 -24.77,29.71 0.99,12.89 8.92,21.8 20.8,20.81 11.9,-1 21.43,-10.61 22.78,-20.81 C 572.37,286.6 564.89,268.5 552,268.5 Z" />
  </g>
  <g
     style="fill:#ffffff"
     id="g41"
     transform="translate(7.001,-0.00244)">
    <path
       style="stroke:#000000;stroke-width:4.45499992;stroke-linejoin:round"
       inkscape:connector-curvature="0"
       id="path33"
       d="m 484.8,349.1 c 15.19,-2.34 35.75,-5.29 37.95,-4.33 l 0.49,35.66 -10.03,0.8 -5.06,-26.48 2.25,27.18 -12.6,0.7 -5.22,-32 z" />
    <path
       inkscape:connector-curvature="0"
       id="path35"
       d="m 550.6,275.2 c -8.29,3.21 -6.7,9.34 -4.62,13.69 2.09,4.35 6.06,6.39 10.05,4.44 4.01,-1.96 6.03,-6.59 5.14,-10.32 -1.04,-4.26 -6.09,-9.55 -10.57,-7.81 z" />
    <path
       inkscape:connector-curvature="0"
       id="path37"
       d="m 452.3,224.3 c 0.55,-3.06 -0.49,-8.7 -3.39,-8.7 -2.91,0 -4.84,5.55 -4.6,7.5 0.25,1.93 2.18,5.55 3.87,5.79 1.7,0.25 3.75,-2.57 4.12,-4.59 z" />
    <path
       inkscape:connector-curvature="0"
       id="path39"
       d="m 498,219.2 c -1.58,-2.67 -2.58,-8.33 0.15,-9.34 2.72,-1.01 6.48,3.53 6.92,5.43 0.45,1.89 -0.15,5.97 -1.62,6.79 -1.5,0.82 -4.39,-1.11 -5.45,-2.88 z" />
  </g>
  <path
     style="fill:#c87137;stroke:#28170b;stroke-width:2.97000003;stroke-linecap:round;stroke-linejoin:round"
     inkscape:connector-curvature="0"
     id="path51"
     d="m 275.601,519.59756 c 0,0 8.92,34.68 13.39,39.62 4.45,4.96 53.98,18.33 63.39,16.35 9.42,-1.97 26.75,-9.41 31.21,-13.87 4.47,-4.45 7.41,-15.06 12.38,-16.84 7.38,-2.63 15.36,-6.44 20.81,-6.93 5.45,-0.49 12.87,0.49 -1,4.45 -13.85,3.97 -24.75,9.42 -26.74,13.87 -1.98,4.46 -6.94,10.41 -6.94,10.41 0,0 14.87,-8.42 18.33,-8.92 3.47,-0.49 14.37,-1.98 20.8,-1.49 6.45,0.51 9.91,3.48 1,5.94 -8.91,2.48 -17.45,-1.65 -25.75,0.51 -5.79,1.5 -13.87,6.43 -15.86,8.42 -1.98,1.97 -6.45,6.93 -1,6.93 5.45,0 15.91,0 23.78,1 8.25,1.02 19.32,11.88 6.93,8.91 -12.38,-2.97 -17.28,-5.64 -26.24,-5.94 -8.52,-0.3 -17.34,0.49 -25.27,3.96 -7.92,3.46 -63.4,5.44 -73.8,3.95 -10.41,-1.48 -23.29,-13.87 -23.29,-13.87 l 0.49,6.94 -0.49,-16.34 -6.44,3.46 0.99,-29.71" />
</svg>
