<?xml version="1.0" encoding="UTF-8" standalone="no"?>
<!-- Created with Inkscape (http://www.inkscape.org/) -->

<svg
   xmlns:dc="http://purl.org/dc/elements/1.1/"
   xmlns:cc="http://creativecommons.org/ns#"
   xmlns:rdf="http://www.w3.org/1999/02/22-rdf-syntax-ns#"
   xmlns:svg="http://www.w3.org/2000/svg"
   xmlns="http://www.w3.org/2000/svg"
   xmlns:sodipodi="http://sodipodi.sourceforge.net/DTD/sodipodi-0.dtd"
   xmlns:inkscape="http://www.inkscape.org/namespaces/inkscape"
   width="721.28326"
   height="800.00348"
   id="svg2"
   version="1.1"
   inkscape:version="0.92.4 (5da689c313, 2019-01-14)"
   sodipodi:docname="owl.svg">
  <defs
     id="defs4" />
  <sodipodi:namedview
     id="base"
     pagecolor="#ffffff"
     bordercolor="#666666"
     borderopacity="1.0"
     inkscape:pageopacity="0.0"
     inkscape:pageshadow="2"
     inkscape:zoom="0.98994949"
     inkscape:cx="382.48295"
     inkscape:cy="594.08593"
     inkscape:document-units="px"
     inkscape:current-layer="layer1"
     showgrid="false"
     inkscape:window-width="1280"
     inkscape:window-height="1001"
     inkscape:window-x="1272"
     inkscape:window-y="-8"
     inkscape:window-maximized="1"
     fit-margin-top="0"
     fit-margin-left="0"
     fit-margin-right="0"
     fit-margin-bottom="0" />
  <metadata
     id="metadata7">
    <rdf:RDF>
      <cc:Work
         rdf:about="">
        <dc:format>image/svg+xml</dc:format>
        <dc:type
           rdf:resource="http://purl.org/dc/dcmitype/StillImage" />
        <dc:title></dc:title>
      </cc:Work>
    </rdf:RDF>
  </metadata>
  <g
     inkscape:label="Layer 1"
     inkscape:groupmode="layer"
     id="layer1"
     transform="translate(-117.0084,-76.938416)">
    <path
       style="fill:#21050a;fill-opacity:1;stroke:#000000;stroke-width:2.99573636;stroke-miterlimit:4;stroke-dasharray:none"
       d="m 548.16281,324.43227 c 28.38253,-17.06899 5.54168,-39.53078 13.90878,-84.52257 6.12211,-32.9199 16.60639,-64.91481 26.74765,-96.82649 5.03007,-15.82818 20.95867,-70.146189 40.12148,-64.194349 24.81388,7.707027 -6.4592,121.917579 -16.58355,157.276169 1.83404,-14.61933 134.92324,-149.302252 157.27618,-131.06347 12.0713,9.84953 -84.05904,118.46012 -117.68966,159.95092 34.88254,-22.3703 166.57657,-100.95952 178.67428,-75.96332 9.69748,20.03686 -104.9679,93.02867 -143.36738,118.22461 31.46868,-2.82648 147.62068,-28.26009 149.48074,-8.86504 3.59268,37.46164 -129.07392,59.44566 -164.45942,68.77978 24.00187,4.71802 101.25211,20.88163 92.0119,40.12146 -12.65644,26.35301 -86.42213,7.04869 -108.59545,3.74467 9.91709,6.08266 45.27044,19.9773 36.11398,32.26076 -18.26821,24.50695 -92.00707,-3.60249 -115.82198,-11.93255"
       id="path2996"
       inkscape:connector-curvature="0"
       sodipodi:nodetypes="cssscscscscscsc" />
    <path
       style="fill:#21050a;fill-opacity:1;stroke:#000000;stroke-width:2.99573636;stroke-linecap:round;stroke-linejoin:round;stroke-miterlimit:4;stroke-dasharray:none;stroke-dashoffset:0;stroke-opacity:1"
       d="m 388.21188,355.45953 c -10.48267,5.14911 -20.00261,8.60963 -25.13231,4.06843 C 309.93534,312.48091 220.11688,113.00877 192.41909,142.0133 169.31151,166.21108 266.39517,315.13284 309.03885,359.2042 284.05308,347.05211 145.4595,230.94309 139.9937,231.8854 c -32.03262,5.52248 81.27762,126.09872 125.179,155.13636 -36.0334,-4.70343 -145.69133,-57.85745 -146.57711,-49.21567 -3.44192,33.57996 103.85894,76.45527 141.22757,86.12743 -34.6892,3.35491 -119.38504,-27.92884 -118.2246,-10.16412 1.9791,30.297 102.27229,43.32142 131.59843,48.68072 -11.77196,1.72151 -56.39054,1.55453 -57.23996,7.48934 -2.76712,19.33339 67.6132,23.84756 78.63808,24.60785 -16.50002,9.41616 -32.31905,16.39144 -27.28258,29.4224 0,0 1.24821,7.66766 25.67772,5.34953 -0.71327,1.42654 -2.96101,2.91236 -2.1398,4.27962 9.80402,16.32292 66.22093,-4.63436 96.82648,-13.90877"
       id="path2998"
       inkscape:connector-curvature="0"
       sodipodi:nodetypes="csscscscscscscsc" />
    <path
       style="fill:#4e403e;fill-opacity:1;stroke:#000000;stroke-width:2.99573636;stroke-linecap:round;stroke-linejoin:round;stroke-miterlimit:4;stroke-dasharray:none;stroke-dashoffset:0;stroke-opacity:1"
       d="m 567.95608,435.16752 c 23.53793,26.56933 81.4269,70.37697 70.61379,79.70799 -13.52124,11.66796 -62.05454,-33.88036 -78.63809,-49.21567 17.1185,22.82466 58.76926,70.12041 49.75062,79.70799 -8.50846,9.04523 -47.07586,-28.1742 -65.79921,-43.86614 12.66055,18.72335 39.10384,52.90503 28.3525,60.98464 -7.88512,5.92565 -34.95025,-25.67775 -47.6108,-38.51662 8.38093,19.79327 21.36141,45.20391 10.69907,52.96036 -10.42475,7.58358 -59.94108,-55.05991 -74.35848,-70.07885"
       id="path3000"
       inkscape:connector-curvature="0"
       sodipodi:nodetypes="cscscscsc" />
    <path
       style="fill:#4e403e;fill-opacity:1;stroke:#000000;stroke-width:2.99573636;stroke-linecap:round;stroke-linejoin:round;stroke-miterlimit:4;stroke-dasharray:none;stroke-dashoffset:0;stroke-opacity:1"
       d="m 588.7858,211.69675 c 1.61881,-0.0326 3.29853,0.0582 5.10212,0.37447 15.10371,2.64801 13.77772,24.44111 6.97445,43.90626 10.63513,-9.26352 24.65278,-16.45598 33.88927,-15.35315 8.61883,1.02908 12.19413,10.93446 10.6255,19.28506 -1.34848,7.17872 -8.48795,12.55302 -12.17018,23.07653 11.59877,-6.44376 28.1819,-14.40206 37.21266,0.51489 7.13426,11.78433 -1.55832,24.99423 -17.92761,40.67649 15.33447,-0.22889 28.03059,-2.6194 29.67652,10.43827 2.56064,20.31431 -15.1654,28.7443 -34.49778,31.54885 14.39854,4.41587 22.84726,14.61992 20.31484,23.54461 -3.7902,13.3574 -18.90644,13.57803 -33.14033,12.82551 7.07889,5.36298 12.18273,12.557 6.41275,19.79994 -12.07173,15.15336 -46.31763,12.36773 -66.28067,5.28934 L 548.15613,324.41134 c 28.37274,-17.0631 5.55939,-39.48161 13.90209,-84.44232 0.005,-0.0134 -0.005,-0.033 0,-0.0467 5.05746,-14.68993 12.41748,-27.93743 26.72758,-28.22545 z"
       id="path3002"
       inkscape:connector-curvature="0" />
    <path
       style="fill:#9a7a6b;fill-opacity:1;stroke:#000000;stroke-width:2.99573636;stroke-linecap:round;stroke-linejoin:round;stroke-miterlimit:4;stroke-dasharray:none;stroke-dashoffset:0;stroke-opacity:1"
       d="m 524.62489,523.96971 c 0.0613,1.89266 4.32241,45.69617 -4.01214,47.07586 -14.33688,2.37329 -16.94017,-36.91176 -25.41026,-55.36764"
       id="path3004"
       inkscape:connector-curvature="0"
       sodipodi:nodetypes="csc" />
    <path
       style="fill:#9a7a6b;fill-opacity:1;stroke:#000000;stroke-width:2.99573636;stroke-linecap:round;stroke-linejoin:round;stroke-miterlimit:4;stroke-dasharray:none;stroke-dashoffset:0;stroke-opacity:1"
       d="m 392.3621,499.03464 c -1.90702,3.3996 -6.19695,58.93907 -22.46803,59.37978 -19.11396,0.51769 -22.00449,-29.6732 -29.15494,-45.20352"
       id="path3006"
       inkscape:connector-curvature="0"
       sodipodi:nodetypes="csc" />
    <path
       style="fill:#4e403e;fill-opacity:1;stroke:#000000;stroke-width:2.99573636;stroke-linecap:round;stroke-linejoin:round;stroke-miterlimit:4;stroke-dasharray:none;stroke-dashoffset:0;stroke-opacity:1"
       d="m 310.79081,315.19009 c 5.25068,-0.24734 11.96237,1.46957 19.33186,4.54041 10.69737,15.30179 23.98742,31.5888 33.17171,40.42891 l -0.7803,146.14931 c -41.26974,-2.77877 -120.35132,-39.65644 -59.35303,-42.26797 -31.49153,-7.97717 -62.19486,-33.14783 -14.97869,-33.70204 -27.09085,-5.46747 -48.64205,-42.56802 3.74468,-34.21693 -39.24129,-30.54739 -22.64881,-58.22392 20.31483,-33.18714 -18.8786,-33.9075 -14.95958,-47.10821 -1.45106,-47.74455 z"
       id="path3011"
       inkscape:connector-curvature="0"
       sodipodi:nodetypes="scccccccs" />
    <ellipse
       cy="403.60529"
       cx="-469.52475"
       style="fill:#4e403e;fill-opacity:1;stroke:#000000;stroke-width:2.9957366;stroke-linecap:round;stroke-linejoin:round;stroke-miterlimit:4;stroke-dasharray:none;stroke-dashoffset:0;stroke-opacity:1"
       id="path3016"
       rx="116.08479"
       ry="105.92068"
       transform="scale(-1,1)" />
    <path
       style="fill:#000000;stroke:none;stroke-width:0.90160495"
       d="m 558.12631,335.17727 c 2.15806,2.32455 4.19668,4.76509 6.1319,7.2553 7.14453,14.88346 11.23379,28.01866 4.86807,32.43821 5.71481,3.36337 10.21284,4.87143 13.3872,4.4468 1.04403,4.05941 1.8246,8.22663 2.34042,12.45103 -2.54213,-1.05241 -5.74817,-2.93286 -9.92338,-5.80425 3.15614,17.70402 2.63324,30.06599 -3.65105,36.2765 7.19964,2.83436 10.8293,1.15005 13.10635,-3.22977 -0.75845,4.74108 -1.90042,9.38665 -3.3234,13.90209 -1.78817,-0.20975 -3.94741,-0.61746 -6.6936,-1.21702 -2.46922,23.60451 -9.59734,48.62708 -53.73602,31.54885 -18.16326,57.90989 -59.04771,56.01941 -93.89762,8.89359 -0.006,-0.007 -0.0412,0.007 -0.0467,0 -0.58234,-0.28585 -1.15593,-0.65602 -1.73191,-0.98298 -30.93733,18.54355 -45.01854,10.38065 -54.67219,-27.71056 -2.84743,2.53464 -5.11321,3.35117 -6.92764,2.94892 -3.21445,-6.63178 -5.72099,-13.61318 -7.39573,-20.87653 -0.14304,-1.53487 -0.24694,-2.96894 -0.37446,-4.4468 -0.20536,-0.0387 -0.38338,-0.10081 -0.5617,-0.18723 -1.01398,-5.63064 -1.59149,-11.37974 -1.59149,-17.2723 0,-0.43366 -0.006,-0.87821 0,-1.31063 0.0369,-0.49789 0.10471,-0.99516 0.14036,-1.49786 0.34774,10.12766 1.84469,17.32067 9.82975,8.9872 -5.87534,-5.00244 -6.20297,-19.91934 -6.31913,-32.57864 0.007,-0.029 -0.007,-0.0645 0,-0.0936 1.10311,-3.91204 2.50669,-7.69781 4.07233,-11.42124 -4.4676,40.42818 13.53263,61.67525 31.31481,7.67657 -9.48327,56.52785 21.87192,75.6457 39.5999,14.69784 11.24755,66.61483 83.70341,50.97263 51.11475,-13.3404 43.44325,49.38105 75.4787,31.63925 36.37012,-30.7531 39.07116,29.23145 58.16691,27.42692 38.5701,-8.79998 z m -204.55263,65.62536 c -0.0177,-0.51482 -0.0342,-1.06311 -0.0467,-1.59149 0.0761,-1.70867 0.21069,-3.36845 0.37447,-5.05531 -0.0664,2.20537 -0.17084,4.43574 -0.32766,6.6468 z M 545.7689,372.29632 c 5.7078,20.42265 3.83954,35.24303 -3.51063,41.79988 28.30093,7.93863 28.62155,-3.86149 21.95314,-37.72756 -4.17984,0.31539 -10.17239,-0.88132 -18.44251,-4.07232 z m -160.7868,29.95737 c -8.49491,7.54844 -14.39728,9.92547 -18.48931,9.03401 3.25103,17.95264 9.21346,30.97397 27.85099,17.22548 -5.66711,-5.07765 -9.49848,-14.19863 -9.36168,-26.25949 z m 116.6465,0.5617 c 0.61252,21.41891 -10.76114,34.52105 -25.0893,37.58712 31.37036,14.7104 56.23648,5.37876 56.68495,-22.65526 -8.10056,0.58405 -18.90484,-3.96788 -31.59565,-14.93186 z m -71.42959,8.28508 c -8.92818,20.06248 -22.31595,25.28421 -32.20418,20.03399 10.71692,25.6947 54.68511,53.54483 72.78704,9.92338 -14.63513,0.38882 -30.98786,-9.02775 -40.58286,-29.95737 z m -67.91897,6.6936 c -2.53496,2.121 -4.4187,3.11472 -5.80425,3.27658 3.43055,10.44497 2.11643,22.45851 11.37445,17.41272 -2.58373,-4.41723 -4.32925,-11.38388 -5.5702,-20.6893 z m 179.18249,6.41274 c 2.0609,13.63132 -4.17767,25.8513 -16.05527,31.73609 29.2451,6.66012 41.79151,-4.9822 41.65946,-30.84673 -5.64539,2.53525 -13.97116,2.33614 -25.60419,-0.88936 z m -145.24641,8.00423 c -9.59012,8.99882 -16.57991,12.72742 -21.71909,11.70211 10.28117,28.20773 17.15431,38.76961 46.76157,24.85524 -9.38846,-6.91863 -17.8305,-19.39645 -25.04248,-36.55735 z m 80.27637,17.92762 c -13.61303,17.50403 -26.65601,25.25118 -38.66372,24.80844 33.09621,23.53582 56.44706,20.52183 76.99979,-15.77442 -10.54261,1.54516 -23.63175,-0.81759 -38.33607,-9.03402 z"
       id="path3020"
       inkscape:connector-curvature="0" />
    <path
       style="fill:#7b676d;fill-opacity:1;stroke:#000000;stroke-width:2.99573636;stroke-linecap:round;stroke-linejoin:round;stroke-miterlimit:4;stroke-dasharray:none;stroke-dashoffset:0;stroke-opacity:1"
       d="m 540.67347,319.88516 c 8.538,-2.96041 11.71352,-8.12841 16.58354,-15.24616 -8.12839,4.36231 -14.04467,3.61996 -22.7355,2.40728 10.34245,-2.71765 11.98621,-8.3752 16.58354,-17.38596 -10.65589,8.37593 -11.09835,7.8464 -23.53793,5.08206 9.04245,-5.42118 9.91044,-12.86922 12.83888,-22.46803 -8.82504,14.02547 -30.08727,13.89583 -38.7841,9.36168 -29.07159,-15.15666 -36.17096,-8.42098 -55.36763,-9.62915 -30.63723,22.49361 -63.85128,15.45821 -75.16088,62.85696 -1.6977,7.1151 1.32723,19.30716 -1.06992,32.36467 -0.635,3.4589 -3.97457,4.27224 -11.50148,5.617 5.06997,3.09119 8.36434,2.72533 13.90877,1.87234 -0.81824,4.7258 -3.00655,6.61777 -6.41943,9.62915 9.15822,3.09227 18.80791,3.35167 28.3525,4.27961 83.80207,22.93966 140.30931,-14.46046 143.3674,-55.90258 6.09482,-6.68499 10.07131,-6.05862 18.58962,-5.75074 -4.96492,-4.87937 -9.12626,-6.15653 -15.64738,-7.08813 z"
       id="path3805"
       inkscape:connector-curvature="0"
       sodipodi:nodetypes="ccccccscssccccccc" />
    <path
       style="fill:#000000;stroke:none;stroke-width:0.90160495"
       d="m 428.86831,315.07059 c 18.91208,-9.45179 47.6481,-5.12075 64.46182,8.55924 13.73979,11.17896 27.95326,38.70775 10.1641,52.15791 -10.59286,8.00915 -26.0702,7.3269 -39.31903,6.41944 -13.47856,-0.92318 -25.85606,-7.84598 -38.78408,-11.76897 -10.41635,12.71186 -18.20318,26.85283 -35.84185,16.0486 -7.16242,-4.55285 -13.21928,-11.70594 -14.71121,-20.06074 -3.01197,-30.26513 7.35907,-48.27913 36.10932,-35.3069 5.97365,-5.34954 10.74801,-12.46373 17.92093,-16.04858 z"
       id="path3807"
       inkscape:connector-curvature="0"
       sodipodi:nodetypes="ssssccccs" />
    <path
       style="fill:#adab52;fill-opacity:1;stroke:none;stroke-width:0.90160495"
       d="m 445.55215,320.15178 c 11.15549,0.10156 23.39016,5.50137 30.94034,12.82549 7.46486,7.24136 15.0939,22.09805 3.3234,31.59567 -15.15921,-3.74954 -23.36749,-13.05418 -30.89353,-27.05525 2.51372,12.76095 9.57936,22.60886 17.97441,32.57863 -26.15968,3.31346 -47.28954,-38.10807 -35.34033,-46.48072 4.1026,-2.45557 8.92504,-3.50998 13.99571,-3.46382 z"
       id="path3809"
       inkscape:connector-curvature="0" />
    <path
       style="fill:#adab52;fill-opacity:1;stroke:none;stroke-width:0.90160495"
       d="m 394.34378,337.79854 c 12.93099,0.71221 18.48407,30.22937 12.8723,41.8935 -7.70467,-7.6751 -11.44636,-16.68239 -14.74464,-27.19567 -1.38494,12.18168 2.43299,21.28787 7.02126,31.8297 -17.61223,-1.8652 -16.67403,-47.16229 -5.14892,-46.52753 z"
       id="path3811"
       inkscape:connector-curvature="0" />
    <path
       style="fill:#000000;stroke:none;stroke-width:0.90160495"
       d="m 440.10232,408.15239 c 0.32222,-26.91645 -2.96642,-23.59103 12.17018,-39.05155 -9.84051,-19.9639 -20.46628,-26.69628 -43.06372,-19.25832 -21.62396,30.87038 15.13726,57.88797 30.89354,58.30987 z"
       id="path3827"
       inkscape:connector-curvature="0"
       sodipodi:nodetypes="cccc" />
    <path
       style="fill:#9a7a6b;fill-opacity:1;stroke:none;stroke-width:0.90160495"
       d="m 448.7953,367.89718 c -8.99275,-17.63804 -23.41707,-24.35228 -38.51662,-16.18232 -7.98242,11.10329 -8.18617,41.98018 26.48018,52.29165 -2.30093,-17.68498 0.79807,-30.53846 12.03644,-36.10933 z"
       id="path3829"
       inkscape:connector-curvature="0"
       sodipodi:nodetypes="cccc" />
    <path
       style="fill:#000000;stroke:none;stroke-width:0.90160495"
       d="m 476.74659,198.9858 c 19.8014,42.53313 5.5057,74.47123 -19.2583,109.1304 -16.15366,22.60831 -31.43514,25.97491 -40.65643,50.28557 -12.83436,-17.5211 -32.89264,-27.18133 -48.41324,-38.78408 -20.46352,-15.29793 -26.66898,-37.35582 -34.50446,-58.30988 56.82398,60.12583 133.30894,1.12527 142.83243,-62.32201 z"
       id="path3817"
       inkscape:connector-curvature="0"
       sodipodi:nodetypes="cscscc" />
    <path
       style="fill:#4e403e;fill-opacity:1;stroke:none;stroke-width:0.90160495"
       d="m 477.01407,204.33533 c 10.53557,45.30169 -8.95925,73.59834 -37.17923,105.38573 -7.5099,8.45924 -20.17923,14.37373 -27.2826,29.15493 -5.35019,-4.85981 -17.80234,-12.16662 -25.94522,-16.85102 -30.03717,-17.27966 -30.24808,-25.84452 -47.34333,-51.62295 71.06047,60.44906 142.32805,-24.37918 137.75038,-66.06669 z"
       id="path3819"
       inkscape:connector-curvature="0"
       sodipodi:nodetypes="cscscc" />
    <ellipse
       ry="15.78747"
       rx="38.533642"
       cy="444.74255"
       cx="-258.17267"
       style="fill:#000000;stroke:none;stroke-width:1.62071371"
       id="path3821"
       transform="matrix(-0.89808597,0.43981994,0.41740858,0.90871892,0,0)" />
    <ellipse
       ry="13.767461"
       rx="33.000874"
       cy="447.22867"
       cx="-263.68488"
       transform="matrix(-0.89301082,0.45003519,0.40760939,0.91315639,0,0)"
       id="path3823"
       style="fill:#7b676d;fill-opacity:1;stroke:none;stroke-width:1.40061772" />
    <path
       style="fill:#000000;stroke:none;stroke-width:0.90160495"
       d="m 615.83437,403.6053 c 13.10891,12.61686 0.36205,28.62112 -17.11851,16.71727 13.95218,1.43054 18.19972,-2.54348 17.11851,-16.71727 z"
       id="path3831"
       inkscape:connector-curvature="0"
       sodipodi:nodetypes="ccc" />
    <path
       style="fill:#000000;stroke:none;stroke-width:0.90160495"
       d="m 634.42398,371.7756 c 17.08954,9.24995 5.93834,24.21632 -11.36776,21.39811 11.74271,-9.00656 14.62087,-10.04815 11.36776,-21.39811 z"
       id="path3833"
       inkscape:connector-curvature="0"
       sodipodi:nodetypes="ccc" />
    <path
       style="fill:#000000;stroke:none;stroke-width:0.90160495"
       d="m 637.23248,357.86683 c 13.28821,-4.40984 24.63473,-20.7404 5.08206,-26.07896 4.83336,10.40586 -0.38783,16.37226 -5.08206,26.07896 z"
       id="path3835"
       inkscape:connector-curvature="0"
       sodipodi:nodetypes="ccc" />
    <path
       style="fill:#000000;stroke:none;stroke-width:0.90160495"
       d="m 627.73706,292.33509 c 14.84269,7.49956 11.16198,10.23645 11.3009,23.93914 9.37068,-11.75788 12.44337,-31.02377 -11.3009,-23.93914 z"
       id="path3837"
       inkscape:connector-curvature="0"
       sodipodi:nodetypes="ccc" />
    <path
       style="fill:#000000;stroke:none;stroke-width:0.90160495"
       d="m 618.10791,282.97341 c 12.54162,-15.41156 8.61152,-31.66969 -11.10026,-17.51971 11.29295,0.31839 13.36395,0.79422 11.10026,17.51971 z"
       id="path3839"
       inkscape:connector-curvature="0"
       sodipodi:nodetypes="ccc" />
    <path
       style="fill:#000000;stroke:none;stroke-width:0.90160495"
       d="m 575.17794,242.7182 c 9.63957,-0.0484 12.62266,3.9256 17.85405,12.63827 0.728,-14.8525 -3.46978,-24.11428 -17.85405,-12.63827 z"
       id="path3841"
       inkscape:connector-curvature="0"
       sodipodi:nodetypes="ccc" />
    <path
       style="fill:#000000;stroke:none;stroke-width:0.90160495"
       d="m 342.74089,350.91243 c -20.4066,-22.99157 -34.20609,-8.19243 -13.10635,13.10635 -0.76031,-11.35399 2.24111,-15.0003 13.10635,-13.10635 z"
       id="path3843"
       inkscape:connector-curvature="0"
       sodipodi:nodetypes="ccc" />
    <path
       style="fill:#000000;stroke:none;stroke-width:0.90160495"
       d="m 319.7379,383.54456 c -20.00067,-18.96718 -32.59226,-7.20138 -10.96654,13.37382 -1.462,-10.53907 -0.22524,-14.26628 10.96654,-13.37382 z"
       id="path3845"
       inkscape:connector-curvature="0"
       sodipodi:nodetypes="ccc" />
    <path
       style="fill:#000000;stroke:none;stroke-width:0.90160495"
       d="m 305.82913,412.96697 c -11.56663,-3.41337 -10.27789,6.27393 -3.74468,12.83888 -23.28806,-8.15922 -22.0855,-31.79684 3.74468,-12.83888 z"
       id="path3847"
       inkscape:connector-curvature="0"
       sodipodi:nodetypes="ccc" />
    <path
       style="fill:#000000;stroke:none;stroke-width:0.90160495"
       d="m 306.63155,441.052 c -11.55451,0.71517 -6.92963,7.11163 0.80243,14.71121 -24.27481,-9.04327 -29.10082,-19.62216 -0.80243,-14.71121 z"
       id="path3849"
       inkscape:connector-curvature="0"
       sodipodi:nodetypes="ccc" />
    <path
       style="fill:#000000;stroke:none;stroke-width:0.90160495"
       d="m 311.7136,469.67198 c -10.13355,1.29562 -8.4282,5.56281 1.33739,13.64131 -23.84838,-4.81612 -27.5461,-18.87501 -1.33739,-13.64131 z"
       id="path3851"
       inkscape:connector-curvature="0"
       sodipodi:nodetypes="ccc" />
    <ellipse
       ry="48.277428"
       rx="49.356148"
       cy="353.67072"
       cx="-607.74414"
       style="fill:#000000;stroke:none;stroke-width:1.55244005"
       id="path3853"
       transform="matrix(-0.97242937,-0.23319761,-0.25343864,0.96735146,0,0)" />
    <ellipse
       ry="45.670624"
       rx="46.69141"
       cy="353.67175"
       cx="-607.74481"
       transform="matrix(-0.97242977,-0.23319592,-0.25344045,0.96735099,0,0)"
       id="path3855"
       style="fill:#4e403e;fill-opacity:1;stroke:none;stroke-width:1.46861899" />
    <ellipse
       ry="47.97015"
       rx="44.50787"
       cy="370.33792"
       cx="-476.82382"
       transform="matrix(-0.96598449,-0.2586,-0.22848281,0.97354795,0,0)"
       id="path3857"
       style="fill:#000000;stroke:none;stroke-width:1.469522" />
    <ellipse
       ry="45.5369"
       rx="41.730938"
       cy="368.91876"
       cx="-475.92471"
       style="fill:#4e403e;fill-opacity:1;stroke:none;stroke-width:1.3863821"
       id="path3859"
       transform="matrix(-0.96506583,-0.26200752,-0.22545987,0.97425246,0,0)" />
    <path
       style="fill:#000000;stroke:none;stroke-width:0.90160495"
       d="m 518.57323,438.6238 c 0.0794,0.0279 0.15482,0.0653 0.23404,0.0936 5.88754,27.83989 10.38095,43.11298 32.01693,46.52754 -0.019,0.48493 -0.0593,0.96456 -0.0936,1.45106 -2.80311,0.11668 -5.4035,0.15026 -7.77019,-0.0936 -2.68373,30.62668 -22.19911,32.60543 -43.20414,0.46808 -1.38882,23.10607 -18.15165,35.36877 -24.90206,8.28508 -10.16513,25.219 -15.32541,9.88666 -20.31484,-15.86804 -0.79575,-0.0373 -1.6088,-0.14559 -2.43403,-0.23404 0.0409,-0.37798 0.09,-0.74483 0.14034,-1.1234 5.07132,-1.36999 8.19025,-4.07056 10.43827,-9.97019 -1.9428,-1.048 -4.02291,-2.52095 -6.1787,-4.39998 0.69191,-1.4414 1.47025,-2.81505 2.29361,-4.16595 14.287,14.37951 23.05924,-3.01615 24.24674,-20.26803 0.0636,-0.0251 0.12343,-0.0688 0.18724,-0.0936 1.63187,31.75589 38.78629,28.31859 35.34032,-0.6085 z m -34.87225,18.20845 c -4.24187,11.19719 -10.71522,15.92197 -19.42547,12.12338 10.78027,18.09227 18.24803,11.68806 26.21269,-5.5702 -2.16,-1.58648 -4.41964,-3.71483 -6.78722,-6.55318 z m 35.29353,0.28086 c -9.44099,7.94382 -17.57816,13.61654 -27.57014,6.97445 6.16735,20.54925 13.21127,21.32825 32.48501,7.06806 -1.7246,-3.76796 -3.35364,-8.36325 -4.91487,-14.04251 z m 5.99147,16.19569 c -7.43404,8.80737 -15.72254,16.24585 -23.07653,13.99572 17.86113,17.48617 33.30088,28.00929 38.71053,-0.98298 -6.40383,-1.19166 -11.34744,-4.71224 -15.634,-13.01274 z m -34.0765,0.0936 c -4.43166,9.19397 -9.68914,13.53529 -15.21273,12.54464 6.77532,26.15435 15.17188,27.51156 22.93611,-0.37446 -2.79698,-2.1451 -5.41536,-6.01896 -7.72338,-12.17018 z m -27.52333,1.63829 c -2.80506,3.99503 -5.6828,4.5756 -8.75317,4.44679 6.95896,23.64967 6.40403,35.65963 20.36165,6.31914 -3.82408,-0.99612 -7.74007,-4.51793 -11.60848,-10.76593 z"
       id="path3861"
       inkscape:connector-curvature="0" />
    <path
       style="fill:#000000;stroke:none;stroke-width:0.90160495"
       d="m 378.05447,438.43656 c 0.26038,0.012 0.53488,0.0299 0.79573,0.0467 5.65374,13.38521 11.90544,25.54257 25.55739,11.88933 0.60323,0.61105 1.16475,1.22468 1.73191,1.87233 -6.40622,7.41295 -12.2801,10.57561 -17.41273,8.84678 6.81935,18.2587 15.02069,17.60656 26.49355,7.16169 0.27821,0.84123 0.51583,1.66729 0.74893,2.52766 -11.44959,13.60824 -25.02491,16.20048 -27.99141,-9.92338 -0.0192,-0.009 -0.0276,-0.0383 -0.0467,-0.0467 0.26246,20.85901 -23.80111,30.2493 -28.31907,9.64252 -4.10737,15.66111 -21.54899,20.06515 -23.40419,1.31064 0.2171,-0.82803 0.44657,-1.62943 0.70212,-2.43404 6.36626,16.82162 15.81662,11.60444 22.46803,-4.25956 -5.12656,-1.10499 -9.01392,-6.69234 -7.77019,-17.64676 0.18245,-0.14769 0.37716,-0.2768 0.5617,-0.42127 5.3883,23.42213 19.76335,12.75733 25.83822,-8.56594 0.0157,6.8e-4 0.0312,-6.8e-4 0.0467,0 z m -0.79575,6.88084 c -0.8187,13.08253 -9.52828,20.45448 -16.61698,19.94037 6.10259,21.96958 21.12218,15.38016 25.97866,-5.19573 -3.54932,-2.248 -6.696,-7.07077 -9.36168,-14.74464 z"
       id="path3871"
       inkscape:connector-curvature="0" />
    <ellipse
       cy="420.1452"
       cx="-387.0853"
       style="fill:#000000;stroke:none;stroke-width:2.12138009"
       id="path3879"
       transform="matrix(-1,0,0.09976713,0.99501081,0,0)"
       rx="18.32214"
       ry="15.860241" />
    <ellipse
       cy="420.14621"
       cx="-387.07437"
       transform="matrix(-1,0,0.09979311,0.99500821,0,0)"
       id="path3881"
       style="fill:#804839;fill-opacity:1;stroke:none;stroke-width:1.87431705"
       rx="16.190388"
       ry="14.01128" />
    <path
       style="fill:#9a7a6b;fill-opacity:1;stroke:#000000;stroke-width:2.99573636;stroke-linecap:round;stroke-linejoin:round;stroke-miterlimit:4;stroke-dasharray:none;stroke-dashoffset:0;stroke-opacity:1"
       d="m 361.86979,539.4236 c -5.52786,-10.25327 -14.80014,-19.24867 -16.58355,-30.7598 -1.39509,-9.00467 -0.98107,-25.79597 7.75682,-26.21269 7.16125,-0.34153 9.01228,13.00212 7.75681,20.06073 -1.59264,8.95424 0.71327,24.60783 1.06992,36.91176 z"
       id="path3899"
       inkscape:connector-curvature="0"
       sodipodi:nodetypes="csssc" />
    <path
       style="fill:#9a7a6b;fill-opacity:1;stroke:#000000;stroke-width:2.99573636;stroke-linecap:round;stroke-linejoin:round;stroke-miterlimit:4;stroke-dasharray:none;stroke-dashoffset:0;stroke-opacity:1"
       d="m 372.56884,541.29593 c -4.81457,-12.74971 -13.76948,-23.04837 -14.44372,-38.24913 -0.3787,-8.53785 3.36193,-23.38282 10.1641,-23.53794 5.56937,-0.12701 10.26324,7.28513 10.69905,12.83888 1.13707,14.48999 -4.27963,28.33882 -6.41943,48.94819 z"
       id="path3901"
       inkscape:connector-curvature="0"
       sodipodi:nodetypes="csssc" />
    <path
       style="fill:#9a7a6b;fill-opacity:1;stroke:#000000;stroke-width:2.99573636;stroke-linecap:round;stroke-linejoin:round;stroke-miterlimit:4;stroke-dasharray:none;stroke-dashoffset:0;stroke-opacity:1"
       d="m 385.94267,540.76098 c -5.34201,-18.43795 -20.04179,-64.17791 2.40728,-62.05454 19.22057,1.81799 8.2558,18.53424 5.49118,25.36755 -5.011,12.38559 -5.79182,24.45381 -7.89846,36.68699 z"
       id="path3903"
       inkscape:connector-curvature="0"
       sodipodi:nodetypes="cssc" />
    <path
       style="fill:#9a7a6b;fill-opacity:1;stroke:#000000;stroke-width:2.99573636;stroke-linecap:round;stroke-linejoin:round;stroke-miterlimit:4;stroke-dasharray:none;stroke-dashoffset:0;stroke-opacity:1"
       d="m 477.28156,554.99697 c -3.94924,-20.31782 -5.74192,-36.48637 -8.29176,-50.28557 -1.80011,-9.74189 -5.91084,-19.16327 -12.5714,-17.92093 -20.2886,3.78428 -0.48606,48.91942 20.86316,68.2065 z"
       id="path3891"
       inkscape:connector-curvature="0"
       sodipodi:nodetypes="cssc" />
    <path
       style="fill:#9a7a6b;fill-opacity:1;stroke:#000000;stroke-width:2.99573636;stroke-linecap:round;stroke-linejoin:round;stroke-miterlimit:4;stroke-dasharray:none;stroke-dashoffset:0;stroke-opacity:1"
       d="m 488.2481,553.39211 c -9.62915,-5.97363 -24.6086,-24.39945 -28.88747,-40.38894 -3.15292,-11.78195 -3.65716,-31.8992 8.55925,-35.57437 5.74011,-1.72685 13.21775,3.55708 15.51364,9.0942 4.4525,10.7384 1.30498,12.74548 2.67477,34.77193 0.66555,10.70214 1.42654,21.39812 2.13981,32.09718 z"
       id="path3893"
       inkscape:connector-curvature="0"
       sodipodi:nodetypes="cssssc" />
    <path
       style="fill:#9a7a6b;fill-opacity:1;stroke:#000000;stroke-width:2.99573636;stroke-linecap:round;stroke-linejoin:round;stroke-miterlimit:4;stroke-dasharray:none;stroke-dashoffset:0;stroke-opacity:1"
       d="m 505.36659,557.67174 c -2.4907,-29.76818 -7.47172,-49.80954 2.40729,-64.99678 6.6774,-10.26534 -3.68739,-18.83416 -13.37382,-15.78112 -30.79618,9.70651 -1.57229,60.8865 10.96653,80.7779 z"
       id="path3889"
       inkscape:connector-curvature="0"
       sodipodi:nodetypes="cssc" />
  </g>
</svg>
